<?xml version="1.0" encoding="UTF-8"?>
<svg width="178px" height="62px" viewBox="0 0 178 62" version="1.1" xmlns="http://www.w3.org/2000/svg" xmlns:xlink="http://www.w3.org/1999/xlink">
    <title>boulder-series-horizontal</title>
    <g id="website" stroke="none" stroke-width="1" fill="none" fill-rule="evenodd">
        <path d="M76.9358511,6.67539984 L106.004177,17.3181056 L110.620283,61.7031704 L62.0432904,61.7031704 L63.7643778,35.8954659 L54.7274083,17.6979245 L76.9358511,6.67539984 Z M44.4005869,4.87712993 L60.1668966,36.9336485 L58.6534457,61.7031704 L11.0117281,61.7031704 L0.975658635,24.3471267 L4.33119777,14.5860218 L44.4005869,4.87712993 Z M162.896163,0.296829631 L172.381605,10.9728168 L148.828422,61.6440532 L113.853759,61.6440532 L109.453049,17.3017326 L162.896163,0.296829631 Z M22.5501119,51.8349022 C18.1618184,52.4427527 15.2077766,51.9165365 15.2077766,51.9165365 C13.7234613,51.6535039 13.4270789,51.8613422 13.4270789,51.8613422 C11.854126,52.3207154 13.0308179,53.7284856 13.0308179,53.7284856 C16.0768986,57.0685132 19.3501758,58.5349542 19.3501758,58.5349542 C20.5197357,59.1523067 21.1953389,58.5762934 21.30851,58.4664617 L21.32552,58.4491571 C22.8735283,57.3192694 23.88635,54.7411254 23.88635,54.7411254 C24.9177653,52.8258587 24.2823758,52.2613848 24.2823758,52.2613848 C23.7583202,51.5245476 22.5501119,51.8349022 22.5501119,51.8349022 Z M39.1736366,49.876029 C38.2439809,50.0446206 37.9455696,50.2366022 37.5407521,50.3690763 C36.113809,50.812533 35.3437481,50.4383515 34.6644443,50.1319289 C32.8317859,49.2988539 31.8014267,51.0033002 31.32614,51.7659416 C29.7609691,54.3040483 29.5711065,56.0935914 29.5621746,56.7487927 L29.5625165,56.8680394 C29.5635865,56.9194435 29.5657112,56.9584236 29.5675685,56.9845526 L29.5710155,57.0239598 C29.7593992,58.4877173 31.3972344,58.5957113 32.1392152,58.5371597 C37.2817643,58.1166327 39.3806226,56.3294065 39.8175226,55.8980237 L39.8678383,55.8469041 C39.8943768,55.8190559 39.9070899,55.8040361 39.9070899,55.8040361 C41.5596054,54.1663454 42.1494214,52.5903595 41.9975744,51.709763 C41.6936813,49.9782595 40.1994292,49.6933106 39.1736366,49.876029 Z M122.656474,46.2373841 L116.871452,46.2373841 L116.871452,58.4123982 L122.656474,58.4123982 C123.967242,58.4123982 125.092107,58.2044399 126.031071,57.7885232 C126.970034,57.3726066 127.694737,56.7235246 128.20518,55.8412772 C128.715624,54.9590298 128.970845,53.8121082 128.970845,52.4005123 C128.970845,50.9132953 128.712473,49.7191104 128.195728,48.8179577 C127.678983,47.916805 126.947978,47.2614213 126.002713,46.8518064 C125.057448,46.4421915 123.942035,46.2373841 122.656474,46.2373841 Z M159.325032,49.5674941 L160.239483,49.9939094 L159.261848,52.0904542 C159.232132,52.1541789 159.216081,52.2191032 159.213693,52.285227 C159.211306,52.3513507 159.221165,52.4147806 159.243271,52.4755167 C159.265377,52.5362528 159.298597,52.5911803 159.342929,52.6402994 C159.387262,52.6894184 159.44129,52.7288356 159.505015,52.758551 C159.56874,52.7882663 159.634195,52.8045654 159.701381,52.8074482 C159.768567,52.810331 159.832528,52.8007194 159.893264,52.7786132 C159.954,52.7565071 160.008927,52.7232878 160.058046,52.6789553 C160.107165,52.6346228 160.146583,52.5805942 160.176298,52.5168694 L160.602713,51.602419 C160.690869,51.4133689 160.809404,51.2520616 160.958318,51.1184973 C161.107233,50.9849329 161.272794,50.8849916 161.455002,50.8186732 C161.637211,50.7523549 161.828279,50.7224936 162.028208,50.7290894 C162.228136,50.7356853 162.422626,50.7830609 162.611676,50.8712165 C162.800726,50.959372 162.961502,51.0776594 163.094004,51.2260786 C163.226507,51.3744978 163.325917,51.5398115 163.392235,51.7220198 C163.458554,51.904228 163.488946,52.095544 163.483412,52.2959679 C163.477878,52.4963918 163.431034,52.6911288 163.342878,52.8801789 L162.396444,54.9098127 L161.481994,54.4833975 L162.428428,52.4537637 C162.458143,52.3900389 162.474195,52.3251146 162.476582,52.2589909 C162.47897,52.1928671 162.46911,52.1294372 162.447004,52.0687011 C162.424898,52.0079651 162.391679,51.9530375 162.347346,51.9039185 C162.303014,51.8547994 162.248985,51.8153822 162.18526,51.7856669 C162.121536,51.7559515 162.056611,51.7399001 161.990488,51.7375125 C161.924364,51.735125 161.860934,51.7449842 161.800198,51.7670904 C161.739462,51.7891965 161.684534,51.8224158 161.635415,51.8667483 C161.586296,51.9110808 161.546879,51.9651094 161.517164,52.0288342 L161.090748,52.9432846 C161.002593,53.1323348 160.883774,53.2928633 160.734293,53.4248703 C160.584812,53.5568773 160.418967,53.65604 160.236759,53.7223584 C160.054551,53.7886767 159.863235,53.819069 159.662811,53.8135353 C159.462387,53.8080015 159.26765,53.7611569 159.0786,53.6730014 C158.88955,53.5848458 158.729021,53.4660274 158.597014,53.3165461 C158.465007,53.1670648 158.365844,53.0012201 158.299526,52.8190118 C158.233208,52.6368036 158.202568,52.4460186 158.207606,52.2466568 C158.212645,52.047295 158.259242,51.8530891 158.347397,51.6640389 L159.325032,49.5674941 Z M49.289487,45.1440442 C48.3951545,46.1553462 47.9427272,47.3161402 47.8095381,48.1409565 C47.6815995,48.9394365 47.0005048,49.5624728 47.0005048,49.5624728 C46.2339341,50.1876999 46.4374398,50.7854884 46.5112286,50.9435254 L46.529512,50.9793517 C46.7560023,51.4579595 47.0325908,51.8462356 47.2454128,52.1126139 C47.5808914,52.5386633 48.1023775,52.8046778 48.6454067,52.7462035 C49.0978548,52.6982782 49.2310647,52.5703438 49.4118007,52.4854604 C50.0348228,52.1988341 50.5839554,52.182915 50.6592243,52.1821033 C50.6680002,52.1820678 52.2491147,52.1394223 52.7653397,52.0862184 C53.8246147,51.9692489 54.8415728,50.7658676 54.8415728,50.7658676 C55.7570222,49.3553725 56.0393396,48.3968471 56.0393396,48.3968471 C56.5242792,46.9433072 55.4114374,46.0116069 55.4114374,46.0116069 C54.7403553,45.4259249 52.9517214,44.7338611 52.0683684,44.4730973 C50.348762,43.9621645 49.289487,45.1440442 49.289487,45.1440442 Z M98.2863436,38.0402451 L88.1671814,38.0402451 L87.7857495,44.5021492 L87.7857495,46.63368 L92.2507457,46.63368 C92.7294053,46.63368 93.0697023,46.704731 93.2716368,46.8468331 C93.4735713,46.9889351 93.5745386,47.2245254 93.5745386,47.5536038 C93.5745386,47.8826823 93.4436551,48.1369702 93.1818881,48.3164675 C92.9201212,48.4959648 92.4825964,48.5857135 91.8693139,48.5857135 C91.5851098,48.5857135 91.1924594,48.5520578 90.6913626,48.4847463 C90.1902659,48.4174348 89.6816901,48.3164675 89.1656353,48.1818445 C88.6495805,48.0472215 88.2120557,47.8976404 87.853061,47.7331012 L87.853061,51.8615398 C88.3167625,52.0559953 88.851515,52.216795 89.4573185,52.3439389 C90.063122,52.4710829 90.6614464,52.5645711 91.2522918,52.6244035 C91.8431372,52.684236 92.3479734,52.7141522 92.7668006,52.7141522 C94.2177373,52.7141522 95.4106467,52.5009991 96.3455287,52.0746929 C97.2804106,51.6483868 97.9759628,51.0612809 98.4321852,50.3133753 C98.8884076,49.5654698 99.1165188,48.7128574 99.1165188,47.7555383 C99.1165188,46.2447691 98.678994,45.089255 97.8039445,44.2889961 C96.928895,43.4887371 95.6163207,43.0886076 93.8662217,43.0886076 L92.7668006,43.0886076 L92.8341121,42.1686838 L97.9497861,42.1686838 L98.2863436,38.0402451 Z M80.2558722,37.8158735 C79.283595,37.8158735 78.348713,37.8981431 77.4512264,38.0626823 C76.5537397,38.2272215 75.7759179,38.4515932 75.117761,38.7357973 L75.117761,43.2456678 C75.6712111,43.006338 76.258317,42.8118826 76.8790786,42.6623015 C77.4998402,42.5127204 78.1467785,42.4379298 78.8198935,42.4379298 C79.8520032,42.4379298 80.368058,42.7894454 80.368058,43.4924766 C80.368058,43.9113038 80.1810816,44.3151728 79.8071289,44.7040837 C79.4331761,45.0929945 78.8273726,45.6464447 77.9897184,46.364434 C77.3016452,46.9627584 76.6883627,47.5573434 76.1498707,48.1481888 C75.6113787,48.7390341 75.1252401,49.3859725 74.6914548,50.0890037 L74.6914548,52.4897805 L86.0222241,52.4897805 L86.0222241,48.3613418 L82.0284084,48.3613418 C82.1929476,48.1220121 82.4547145,47.8490265 82.8137092,47.5423852 C83.1727039,47.235744 83.5017823,46.9478003 83.8009445,46.6785543 C84.3244784,46.2148529 84.739566,45.7848072 85.0462073,45.3884172 C85.3528486,44.9920273 85.5734807,44.5694607 85.7081037,44.1207173 C85.8427267,43.671974 85.9100382,43.140961 85.9100382,42.5276785 C85.9100382,41.121616 85.4463368,39.9847996 84.5189339,39.1172291 C83.591531,38.2496587 82.1705104,37.8158735 80.2558722,37.8158735 Z M140.316604,39.926555 L130.580374,39.926555 L130.580374,52.1015691 L140.316604,52.1015691 L140.316604,48.8120467 L136.383074,48.8120467 L136.383074,47.7155392 L139.598202,47.7155392 L139.598202,44.312585 L136.383074,44.312585 L136.383074,43.2160775 L140.316604,43.2160775 L140.316604,39.926555 Z M162.339304,43.1033667 L163.253755,43.529782 L162.219661,45.7474038 L163.134111,46.1738191 L163.833907,44.6731008 L164.748358,45.099516 L164.048561,46.6002343 L164.959826,47.0251637 L165.99392,44.8075419 L166.90837,45.2339571 L165.447861,48.3660293 L160.878795,46.235439 L162.339304,43.1033667 Z M149.091391,34.061206 L142.247671,34.061206 L142.247671,46.2362201 L146.822754,46.2362201 L146.822754,43.1357507 L147.320226,43.1357507 L148.73219,46.2362201 L153.496326,46.2362201 C152.360216,43.6863216 151.760647,42.3406608 151.697621,42.1992379 C152.226685,41.8134554 152.684464,41.3379055 153.070956,40.772588 C153.493175,40.1550148 153.704284,39.4366134 153.704284,38.6173836 C153.704284,37.7477398 153.537287,36.9694715 153.203294,36.2825789 C152.8693,35.5956863 152.362008,35.0537343 151.681417,34.656723 C151.000826,34.2597117 150.137484,34.061206 149.091391,34.061206 Z M15.7944542,38.2253289 C11.4832445,39.8201914 11.886801,41.930232 11.886801,41.930232 C11.9715659,42.6934848 12.8636904,42.7996864 13.2969176,42.8072484 C15.1200053,42.8390705 15.3548627,43.4023814 15.8211177,43.9062867 C16.493481,44.6307626 17.7208963,44.7358704 17.7208963,44.7358704 C19.2371783,44.9283315 20.0913776,43.497819 20.3183199,43.053106 L20.3646875,42.958222 C20.3749769,42.9360477 20.3801086,42.9239806 20.3801086,42.9239806 C20.8416464,41.7091464 21.6849247,41.437539 22.2890012,41.2455623 C23.6801656,40.8018636 22.9609907,39.5802853 22.6659151,39.2605723 C20.3149618,36.6409432 15.7944542,38.2253289 15.7944542,38.2253289 Z M29.0085547,39.9730931 L28.9851498,39.9956554 C28.5862595,40.3218805 28.0681911,41.5789496 28.0681911,41.5789496 C27.7035066,42.4577433 28.1332834,43.0316129 28.5055497,43.250501 C29.1324981,43.6125129 30.1877036,43.9225593 30.8909432,44.1041861 L31.1516181,44.1698066 C31.4295234,44.2379504 31.6081229,44.2759073 31.6081229,44.2759073 C32.7177404,44.523463 33.1517854,43.5030292 33.2243961,43.3064155 L33.2356777,43.2741513 C33.5516291,42.3984945 33.045293,41.7967014 32.9288732,41.6737802 L32.9058607,41.6505322 C32.4637597,41.1809849 30.4804647,39.8094513 30.4804647,39.8094513 C29.7941815,39.3038376 29.1389037,39.8520727 29.0085547,39.9730931 Z M41.0885599,38.035342 C39.922044,38.2200384 37.9721679,39.2136235 37.9721679,39.2136235 C36.8248054,39.7837602 37.3253061,41.0517359 37.3253061,41.0517359 C37.6757651,42.0603996 38.6284594,42.1266355 38.6284594,42.1266355 C39.2234017,42.2073333 41.3188996,42.0594422 41.6788354,42.0331119 L41.7316526,42.0291991 C42.7020295,41.984806 42.7970366,40.9221702 42.7970366,40.9221702 C42.9037854,40.4077226 42.5076836,39.0792173 42.5076836,39.0792173 C42.232767,38.1488716 41.5239896,37.9699171 41.0885599,38.035342 Z M166.843031,36.9555749 C167.0184,36.984337 167.189989,37.0378433 167.357798,37.1160937 C167.514985,37.1893915 167.658763,37.2803568 167.789129,37.3889896 C167.919496,37.4976223 168.034504,37.6197816 168.134153,37.7554673 C168.233803,37.891153 168.315155,38.0383484 168.37821,38.1970534 C168.441264,38.3557585 168.483507,38.5202749 168.504938,38.6906027 L169.936014,38.7411535 L169.482855,39.7129562 L168.376311,39.6818493 L167.905752,40.7076033 L168.820203,41.1340185 L168.393787,42.0484689 L163.824722,39.9178786 L164.677552,38.0889778 C164.755803,37.9211692 164.852854,37.7698859 164.968707,37.6351278 C165.084559,37.5003697 165.213762,37.3841207 165.356316,37.2863808 C165.498869,37.1886409 165.651906,37.1100127 165.815426,37.0504962 C165.978946,36.9909797 166.147252,36.9530898 166.320342,36.9368266 C166.493432,36.9205634 166.667662,36.9268128 166.843031,36.9555749 Z M166.542687,37.9365714 C166.408882,37.9323631 166.281244,37.9523651 166.159772,37.9965773 C166.038299,38.0407896 165.927913,38.1069806 165.828613,38.1951503 C165.729313,38.2833201 165.650443,38.3900676 165.592003,38.515393 L165.165587,39.4298434 L166.994488,40.2826738 L167.420903,39.3682234 C167.479344,39.2428981 167.51042,39.113864 167.514133,38.9811212 C167.517846,38.8483785 167.497597,38.721271 167.453384,38.5997989 C167.409172,38.4783267 167.34245,38.3676929 167.253218,38.2678975 C167.163986,38.1681021 167.056708,38.0889842 166.931382,38.0305441 C166.806057,37.9721039 166.676492,37.9407797 166.542687,37.9365714 Z M121.870659,26.5922462 L114.648834,26.5922462 L114.648834,38.7672603 L121.94628,38.7672603 C123.294858,38.7672603 124.344103,38.4395684 125.094013,37.7841846 C125.843923,37.1288008 126.218878,36.2276481 126.218878,35.0807265 C126.218878,34.3749286 126.080239,33.8424293 125.802962,33.4832285 C125.525684,33.1240278 125.147578,32.8309956 124.668644,32.604132 C125.008939,32.3520613 125.283066,32.0117659 125.491024,31.5832457 C125.698982,31.1547256 125.802962,30.6379807 125.802962,30.033011 C125.802962,28.9239 125.459515,28.0731614 124.772623,27.4807953 C124.08573,26.8884292 123.118409,26.5922462 121.870659,26.5922462 Z M89.1030161,21.1533995 C86.7696784,21.1533995 85.0904845,21.7928587 84.0654344,23.0717772 C83.0403843,24.3506958 82.5278592,26.194283 82.5278592,28.6025389 C82.5278592,30.9958366 83.0403843,32.8356843 84.0654344,34.1220819 C85.0904845,35.4084794 86.7696784,36.0516782 89.1030161,36.0516782 C91.4363538,36.0516782 93.1155476,35.4084794 94.1405977,34.1220819 C95.1656478,32.8356843 95.6781729,30.9958366 95.6781729,28.6025389 C95.6781729,26.194283 95.1656478,24.3506958 94.1405977,23.0717772 C93.1155476,21.7928587 91.4363538,21.1533995 89.1030161,21.1533995 Z M75.1836084,21.1533995 C74.2113311,21.1533995 73.2764492,21.2356691 72.3789625,21.4002083 C71.4814759,21.5647475 70.7036541,21.7891192 70.0454972,22.0733233 L70.0454972,26.5831938 C70.5989473,26.3438641 71.1860532,26.1494086 71.8068148,25.9998275 C72.4275764,25.8502464 73.0745147,25.7754558 73.7476297,25.7754558 C74.7797394,25.7754558 75.2957942,26.1269715 75.2957942,26.8300027 C75.2957942,27.2488298 75.1088178,27.6526988 74.734865,28.0416097 C74.3609123,28.4305206 73.7551088,28.9839707 72.9174545,29.70196 C72.2293814,30.3002845 71.6160989,30.8948694 71.0776069,31.4857148 C70.5391149,32.0765602 70.0529762,32.7234985 69.619191,33.4265297 L69.619191,35.8273065 L80.9499602,35.8273065 L80.9499602,31.6988679 L76.9561445,31.6988679 C77.1206838,31.4595381 77.3824507,31.1865526 77.7414454,30.8799113 C78.1004401,30.57327 78.4295185,30.2853264 78.7286807,30.0160804 C79.2522146,29.5523789 79.6673022,29.1223332 79.9739435,28.7259433 C80.2805848,28.3295533 80.5012169,27.9069867 80.6358399,27.4582433 C80.7704629,27.0095 80.8377744,26.4784871 80.8377744,25.8652045 C80.8377744,24.4591421 80.374073,23.3223256 79.4466701,22.4547552 C78.5192672,21.5871847 77.0982466,21.1533995 75.1836084,21.1533995 Z M167.421415,32.2047458 L171.99048,34.3353361 L171.564065,35.2497865 L166.994999,33.1191962 L167.421415,32.2047458 Z M8.86536275,27.277148 C8.86536275,27.277148 7.82309069,28.8694368 7.49055339,29.7683096 C7.49055339,29.7683096 7.30883695,30.2290714 7.69409627,30.6701259 C7.69409627,30.6701259 8.36323023,31.5108242 9.05874736,32.4075239 L9.31954763,32.7448787 C9.79534572,33.3625557 10.245639,33.9603406 10.4615647,34.2832454 C10.5407838,34.4003899 10.6707361,34.5940538 11.0076315,34.5696232 C11.0076315,34.5696232 11.9912872,34.4949028 12.4710309,34.5673936 C12.4710309,34.5673936 12.7654234,34.6129982 12.9603336,34.3223053 C12.9603336,34.3223053 14.5902958,32.559276 15.9801289,30.1524551 C15.9775335,30.1543543 16.4064905,29.6381071 15.7001344,29.5818796 C15.7000923,29.581905 12.7743576,29.4698953 10.4923564,27.813492 C10.4923564,27.813492 9.67904302,27.26041 9.47922819,27.0686356 C9.47922819,27.0686356 9.18061149,26.6604104 8.86536275,27.277148 Z M48.8975237,27.5810086 C46.9481713,29.3055543 45.9639553,29.639661 44.9677302,29.8625605 L44.7178582,29.9167088 C44.5922316,29.9433649 44.4651451,29.969949 44.3346901,29.9989596 C43.0160835,30.2939408 42.6385801,30.5535536 42.6385801,30.5535536 C41.2307846,31.3300812 42.5436693,32.1515825 42.5436693,32.1515825 C43.6002019,32.9605148 45.3590728,33.5006098 46.0643604,33.6949342 L46.2292704,33.7393011 C46.3200368,33.7630868 46.370697,33.7752109 46.370697,33.7752109 C48.5360681,34.2217477 49.6794031,32.6698211 49.6794031,32.6698211 C51.8354718,30.1253489 51.5398306,27.8004032 51.2945211,26.8310764 C50.9935119,25.6227623 48.8975237,27.5810086 48.8975237,27.5810086 Z M134.053604,20.0115258 C132.679819,20.0115258 131.50769,20.2163333 130.537218,20.6259481 C129.566746,21.035563 128.823137,21.6972486 128.306392,22.6110048 C127.789647,23.524761 127.531275,24.7504547 127.531275,26.2880859 C127.531275,27.8131136 127.789647,29.0356564 128.306392,29.9557144 C128.823137,30.8757724 129.566746,31.5406088 130.537218,31.9502237 C131.50769,32.3598385 132.679819,32.564646 134.053604,32.564646 C135.427389,32.564646 136.599518,32.3598385 137.56999,31.9502237 C138.540462,31.5406088 139.284071,30.8757724 139.800816,29.9557144 C140.31756,29.0356564 140.575933,27.8131136 140.575933,26.2880859 C140.575933,24.7504547 140.31756,23.524761 139.800816,22.6110048 C139.284071,21.6972486 138.540462,21.035563 137.56999,20.6259481 C136.599518,20.2163333 135.427389,20.0115258 134.053604,20.0115258 Z M34.4674181,19.6408183 C32.4872035,22.3319359 31.2048268,24.8340403 30.4290077,26.6196074 L30.2704445,26.9910692 C29.6666476,28.431509 29.4249774,29.3178298 29.4249774,29.3178298 C28.2341905,32.4052173 30.0727247,31.7654687 30.8711691,31.3767186 L30.9754203,31.3245036 C31.039875,31.2913134 31.0936916,31.2618962 31.1335945,31.2394543 L31.1826039,31.2114234 C31.2014814,31.2004239 31.2116112,31.1942487 31.2116112,31.1942487 C37.9778502,27.44289 38.4759955,21.1459297 38.4759955,21.1459297 C38.8614304,19.2983263 37.8695536,19.1660937 37.8695536,19.1660937 L36.6721417,18.794226 C35.5498265,18.2318584 34.4674181,19.6408183 34.4674181,19.6408183 Z M170.463916,25.6800798 L171.378367,26.1064951 L170.344273,28.3241169 L171.258723,28.7505321 L171.958519,27.2498139 L172.87297,27.6762291 L172.173173,29.1769474 L173.084438,29.6018768 L174.118532,27.384255 L175.032982,27.8106702 L173.572473,30.9427424 L169.003407,28.8121521 L170.463916,25.6800798 Z M146.541084,13.6141012 L141.966001,13.6141012 L141.966001,20.9871688 C141.966001,22.0710727 142.233827,22.9848289 142.769477,23.7284375 C143.305127,24.472046 144.032981,25.0329033 144.953039,25.4110093 C145.873097,25.7891153 146.906587,25.9781683 148.053508,25.9781683 C149.20043,25.9781683 150.23392,25.7891153 151.153978,25.4110093 C152.074036,25.0329033 152.80189,24.472046 153.33754,23.7284375 C153.87319,22.9848289 154.141015,22.0710727 154.141015,20.9871688 L154.141015,13.6141012 L149.565933,13.6141012 L149.565933,20.4011044 C149.565933,21.5354225 149.061791,22.1025815 148.053508,22.1025815 C147.045226,22.1025815 146.541084,21.5354225 146.541084,20.4011044 L146.541084,13.6141012 Z M23.0234265,14.1552159 C20.6103783,15.411285 19.5369709,15.4931584 18.4704233,15.4657519 L18.2139012,15.4576214 C18.0850236,15.4530523 17.9547094,15.4481363 17.8206556,15.4447137 C16.4185104,15.4106869 15.9731043,15.5773652 15.9731043,15.5773652 C14.4714397,15.9763868 15.3352657,17.0068964 15.4615564,17.1471378 L15.4762193,17.1630295 C16.57201,18.5376409 18.9229924,19.7593441 18.9229924,19.7593441 C19.0211136,19.8064655 19.1180481,19.8484817 19.2136878,19.8857708 L20.3837242,24.9509177 L21.9986567,24.5780812 L20.966498,20.1076435 C21.2653807,20.0673446 21.5298578,19.991119 21.7524267,19.9052064 L22.7888948,24.3956403 L24.4038273,24.0228038 L23.2279275,18.9265387 C25.3923702,17.0346077 25.6292769,14.9469197 25.6259484,14.0018293 C25.6262076,12.7092545 23.0234265,14.1552159 23.0234265,14.1552159 Z M173.417272,19.3465882 L174.331722,19.7730034 L173.354087,21.8695482 C173.324372,21.933273 173.308321,21.9981973 173.305933,22.064321 C173.303546,22.1304448 173.313405,22.1938747 173.335511,22.2546108 C173.357617,22.3153469 173.390836,22.3702744 173.435169,22.4193935 C173.479501,22.4685125 173.53353,22.5079297 173.597255,22.5376451 C173.66098,22.5673604 173.726435,22.5836595 173.793621,22.5865423 C173.860807,22.5894251 173.924768,22.5798134 173.985504,22.5577073 C174.04624,22.5356012 174.101167,22.5023819 174.150286,22.4580494 C174.199405,22.4137169 174.238823,22.3596882 174.268538,22.2959635 L174.694953,21.3815131 C174.783109,21.1924629 174.901644,21.0311557 175.050558,20.8975914 C175.199473,20.764027 175.365034,20.6640857 175.547242,20.5977673 C175.72945,20.5314489 175.920519,20.5015877 176.120447,20.5081835 C176.320376,20.5147793 176.514865,20.562155 176.703916,20.6503106 C176.892966,20.7384661 177.053742,20.8567535 177.186244,21.0051727 C177.318746,21.1535919 177.418157,21.3189056 177.484475,21.5011138 C177.550793,21.6833221 177.581186,21.8746381 177.575652,22.075062 C177.570118,22.2754858 177.523274,22.4702228 177.435118,22.659273 L176.488684,24.6889068 L175.574234,24.2624916 L176.520668,22.2328578 C176.550383,22.169133 176.566434,22.1042087 176.568822,22.038085 C176.57121,21.9719612 176.56135,21.9085313 176.539244,21.8477952 C176.517138,21.7870591 176.483919,21.7321316 176.439586,21.6830125 C176.395254,21.6338935 176.341225,21.5944763 176.2775,21.5647609 C176.213776,21.5350456 176.148851,21.5189942 176.082728,21.5166066 C176.016604,21.514219 175.953174,21.5240783 175.892438,21.5461845 C175.831702,21.5682906 175.776774,21.6015099 175.727655,21.6458424 C175.678536,21.6901749 175.639119,21.7442035 175.609403,21.8079283 L175.182988,22.7223787 C175.094833,22.9114288 174.976014,23.0719574 174.826533,23.2039644 C174.677052,23.3359714 174.511207,23.4351341 174.328999,23.5014525 C174.146791,23.5677708 173.955474,23.5981631 173.755051,23.5926294 C173.554627,23.5870956 173.35989,23.540251 173.17084,23.4520955 C172.981789,23.3639399 172.821261,23.2451215 172.689254,23.0956402 C172.557247,22.9461589 172.458084,22.7803141 172.391766,22.5981059 C172.325447,22.4158977 172.294808,22.2251127 172.299846,22.0257509 C172.304885,21.8263891 172.351482,21.6321832 172.439637,21.443133 L173.417272,19.3465882 Z M161.02674,5.67271934 L156.451657,5.67271934 L156.451657,17.8477334 L165.998834,17.8477334 L165.998834,14.369158 L161.02674,14.369158 L161.02674,5.67271934 Z" id="boulder-series-horizontal" fill="#FFFFFF"></path>
    </g>
</svg>