<?xml version="1.0" encoding="UTF-8"?>
<svg width="315px" height="41px" viewBox="0 0 315 41" version="1.1" xmlns="http://www.w3.org/2000/svg" xmlns:xlink="http://www.w3.org/1999/xlink">
    <title>Inscríbete</title>
    <g id="website" stroke="none" stroke-width="1" fill="none" fill-rule="evenodd">
        <path d="M305.134933,-6.03961325e-14 L314.647078,11.3259536 L306.005683,41 L0.647077581,41 L0.647077581,-6.03961325e-14 L305.134933,-6.03961325e-14 Z M288.702234,11.4320425 C288.518707,11.6155691 288.34715,11.7871266 288.187562,11.946715 L287.265939,12.8683379 C287.196784,12.9374928 287.132948,13.0013282 287.074433,13.0598439 L286.847019,13.2872573 C286.804462,13.3298142 286.767225,13.3670515 286.735307,13.3989692 L286.591678,13.5425987 L291.570426,18.4672299 C281.707788,18.5316151 276.245404,18.5672746 275.183274,18.5742083 L275.089095,18.5748232 C275.076014,18.5749086 275.064242,18.5749854 275.053778,18.5750537 L274.990992,18.5754636 L274.990992,21.6060059 L291.462192,21.6060059 L286.230076,26.5 C287.878181,28.0717738 288.702234,28.8576606 288.702234,28.8576606 C288.702234,28.8576606 290.740209,26.7985935 292.850969,24.6659882 L293.320426,24.1916724 C295.431185,22.0590672 297.46916,20 297.46916,20 L288.702234,11.4320425 Z" id="Inscríbete" fill="#FFFFFF"></path>
    </g>
</svg>