<?xml version="1.0" encoding="UTF-8"?>
<svg width="236px" height="37px" viewBox="0 0 236 37" version="1.1" xmlns="http://www.w3.org/2000/svg" xmlns:xlink="http://www.w3.org/1999/xlink">
    <title>date-soon-button</title>
    <g id="website" stroke="none" stroke-width="1" fill="none" fill-rule="evenodd" opacity="0.581845238">
        <path d="M226.120242,0.5 L235.632386,11.8259536 L226.990992,36.5 L0.701661339,36.5 L0.701661339,0.5 L226.120242,0.5 Z M224.128039,3.5 L3.82427803,3.5 L3.82427803,33.5 L224.853664,33.5 L232.054826,12.9382947 L224.128039,3.5 Z M106.69811,15.928 C107.37011,15.928 107.99111,16.042 108.56111,16.27 C109.13111,16.498 109.62311,16.819 110.03711,17.233 C110.45111,17.647 110.77511,18.139 111.00911,18.709 C111.24311,19.279 111.36011,19.9 111.36011,20.572 C111.36011,21.244 111.24311,21.865 111.00911,22.435 C110.77511,23.005 110.45111,23.497 110.03711,23.911 C109.62311,24.325 109.13111,24.646 108.56111,24.874 C107.99111,25.102 107.37011,25.216 106.69811,25.216 C106.02611,25.216 105.40811,25.102 104.84411,24.874 C104.28011,24.646 103.79111,24.325 103.37711,23.911 C102.96311,23.497 102.63911,23.005 102.40511,22.435 C102.17111,21.865 102.05411,21.244 102.05411,20.572 C102.05411,19.9 102.17111,19.279 102.40511,18.709 C102.63911,18.139 102.96311,17.647 103.37711,17.233 C103.79111,16.819 104.28011,16.498 104.84411,16.27 C105.40811,16.042 106.02611,15.928 106.69811,15.928 Z M127.86611,13.156 L127.86611,16.144 L130.04411,16.144 L130.04411,18.52 L127.86611,18.52 L127.86611,22.084 C127.86611,22.36 127.91111,22.549 128.00111,22.651 C128.09111,22.753 128.22011,22.804 128.38811,22.804 C128.55611,22.804 128.75411,22.789 128.98211,22.759 C129.21011,22.729 129.49211,22.672 129.82811,22.588 L130.22411,24.946 C129.91211,25.03 129.56711,25.096 129.18911,25.144 C128.81111,25.192 128.43011,25.216 128.04611,25.216 C127.21811,25.216 126.55211,25.006 126.04811,24.586 C125.54411,24.166 125.29211,23.47 125.29211,22.498 L125.29211,18.52 L123.81611,18.52 L123.81611,16.144 L125.29211,16.144 L125.29211,13.156 L127.86611,13.156 Z M136.21811,15.928 C136.89011,15.928 137.51111,16.042 138.08111,16.27 C138.65111,16.498 139.14311,16.819 139.55711,17.233 C139.97111,17.647 140.29511,18.139 140.52911,18.709 C140.76311,19.279 140.88011,19.9 140.88011,20.572 C140.88011,21.244 140.76311,21.865 140.52911,22.435 C140.29511,23.005 139.97111,23.497 139.55711,23.911 C139.14311,24.325 138.65111,24.646 138.08111,24.874 C137.51111,25.102 136.89011,25.216 136.21811,25.216 C135.54611,25.216 134.92811,25.102 134.36411,24.874 C133.80011,24.646 133.31111,24.325 132.89711,23.911 C132.48311,23.497 132.15911,23.005 131.92511,22.435 C131.69111,21.865 131.57411,21.244 131.57411,20.572 C131.57411,19.9 131.69111,19.279 131.92511,18.709 C132.15911,18.139 132.48311,17.647 132.89711,17.233 C133.31111,16.819 133.80011,16.498 134.36411,16.27 C134.92811,16.042 135.54611,15.928 136.21811,15.928 Z M88.5721104,12.724 C89.1961104,12.724 89.7751104,12.811 90.3091104,12.985 C90.8431104,13.159 91.3051104,13.417 91.6951104,13.759 C92.0851104,14.101 92.3881104,14.524 92.6041104,15.028 C92.8201104,15.532 92.9281104,16.108 92.9281104,16.756 C92.9281104,17.416 92.8201104,17.998 92.6041104,18.502 C92.3881104,19.006 92.0851104,19.429 91.6951104,19.771 C91.3051104,20.113 90.8431104,20.371 90.3091104,20.545 C89.7751104,20.719 89.1961104,20.806 88.5721104,20.806 L85.8541104,20.806 L85.8541104,25 L83.1901104,25 L83.1901104,12.724 Z M99.7501104,15.928 C99.9541104,15.928 100.16711,15.946 100.38911,15.982 C100.61111,16.018 100.80611,16.06 100.97411,16.108 L100.47011,18.79 C100.26611,18.73 100.02611,18.661 99.7501104,18.583 C99.4741104,18.505 99.2221104,18.466 98.9941104,18.466 C98.5741104,18.466 98.2471104,18.619 98.0131104,18.925 C97.7791104,19.231 97.6621104,19.762 97.6621104,20.518 L97.6621104,25 L95.0881104,25 L95.0881104,16.144 L97.2661104,16.144 L97.3741104,17.386 L97.4101104,17.386 C97.6621104,16.918 97.9831104,16.558 98.3731104,16.306 C98.7631104,16.054 99.2221104,15.928 99.7501104,15.928 Z M118.81211,15.928 C119.26811,15.928 119.70011,16.009 120.10811,16.171 C120.51611,16.333 120.87311,16.576 121.17911,16.9 C121.48511,17.224 121.72511,17.638 121.89911,18.142 C122.07311,18.646 122.16011,19.24 122.16011,19.924 L122.16011,25 L119.58611,25 L119.58611,20.374 C119.58611,19.99 119.54111,19.669 119.45111,19.411 C119.36111,19.153 119.24111,18.943 119.09111,18.781 C118.94111,18.619 118.76711,18.502 118.56911,18.43 C118.37111,18.358 118.15811,18.322 117.93011,18.322 C117.64211,18.322 117.38411,18.385 117.15611,18.511 C116.92811,18.637 116.73611,18.805 116.58011,19.015 C116.42411,19.225 116.30411,19.459 116.22011,19.717 C116.13611,19.975 116.09411,20.236 116.09411,20.5 L116.09411,25 L113.52011,25 L113.52011,16.144 L115.69811,16.144 L115.80611,17.314 L115.84211,17.314 C116.22611,16.858 116.68211,16.51 117.21011,16.27 C117.71411,16.042 118.22411,15.928 118.74011,15.928 Z M106.69811,18.376 C106.08611,18.376 105.58811,18.577 105.20411,18.979 C104.82011,19.381 104.62811,19.912 104.62811,20.572 C104.62811,21.232 104.82011,21.766 105.20411,22.174 C105.58811,22.582 106.08611,22.786 106.69811,22.786 C107.31011,22.786 107.81111,22.582 108.20111,22.174 C108.59111,21.766 108.78611,21.232 108.78611,20.572 C108.78611,19.912 108.59111,19.381 108.20111,18.979 C107.81111,18.577 107.31011,18.376 106.69811,18.376 Z M136.21811,18.376 C135.60611,18.376 135.10811,18.577 134.72411,18.979 C134.34011,19.381 134.14811,19.912 134.14811,20.572 C134.14811,21.232 134.34011,21.766 134.72411,22.174 C135.10811,22.582 135.60611,22.786 136.21811,22.786 C136.83011,22.786 137.33111,22.582 137.72111,22.174 C138.11111,21.766 138.30611,21.232 138.30611,20.572 C138.30611,19.912 138.11111,19.381 137.72111,18.979 C137.33111,18.577 136.83011,18.376 136.21811,18.376 Z M88.5541104,15.244 L85.8541104,15.244 L85.8541104,18.286 L88.5541104,18.286 C89.0581104,18.286 89.4661104,18.163 89.7781104,17.917 C90.0901104,17.671 90.2461104,17.284 90.2461104,16.756 C90.2461104,16.24 90.0901104,15.859 89.7781104,15.613 C89.4661104,15.367 89.0581104,15.244 88.5541104,15.244 Z" id="date-soon-button" fill="#FFFFFF"></path>
    </g>
</svg>