<?xml version="1.0" encoding="UTF-8"?>
<svg width="236px" height="36px" viewBox="0 0 236 36" version="1.1" xmlns="http://www.w3.org/2000/svg" xmlns:xlink="http://www.w3.org/1999/xlink">
    <title>date-results-button</title>
    <g id="website" stroke="none" stroke-width="1" fill="none" fill-rule="evenodd">
        <path d="M226.120242,0 L235.632386,11.3259536 L226.990992,36 L0.701661339,36 L0.701661339,0 L226.120242,0 Z M211.702234,9.28719093 L211.35114,9.63828535 C211.239428,9.74999721 211.133036,9.85638946 211.031963,9.9574621 L210.489362,10.5000626 C210.24998,10.7394451 210.058474,10.9309512 209.914844,11.0745807 L209.691421,11.2980044 C209.678122,11.3113035 209.666152,11.3232726 209.655513,11.3339118 L209.607637,11.3817883 C209.596997,11.3924276 209.591678,11.3977472 209.591678,11.3977472 L214.570426,16.3223784 C205.217925,16.3834333 199.822251,16.4186572 198.383404,16.4280503 L198.242136,16.4289725 C198.221207,16.4291091 198.201587,16.4292372 198.183274,16.4293568 L198.089095,16.4299716 C198.076014,16.430057 198.064242,16.4301338 198.053778,16.4302022 L197.990992,16.430612 L197.990992,19.4611543 L214.462192,19.4611543 L209.230076,24.3551484 C210.878181,25.9269222 211.702234,26.7128091 211.702234,26.7128091 L211.775019,26.639271 C212.568763,25.8373121 219.602631,18.7306454 220.396375,17.9286865 L220.46916,17.8551484 L211.702234,9.28719093 Z M104.17011,15.41 C103.84611,15.41 103.51311,15.434 103.17111,15.482 C102.82911,15.53 102.49011,15.596 102.15411,15.68 C101.81811,15.764 101.49411,15.866 101.18211,15.986 C100.87011,16.106 100.58211,16.232 100.31811,16.364 L101.45211,18.38 C101.93211,18.068 102.40311,17.846 102.86511,17.714 C103.32711,17.582 103.77411,17.516 104.20611,17.516 C104.77011,17.516 105.17811,17.627 105.43011,17.849 C105.68211,18.071 105.80811,18.368 105.80811,18.74 L105.80811,18.956 C105.52011,18.908 105.22011,18.872 104.90811,18.848 C104.59611,18.824 104.27811,18.812 103.95411,18.812 C102.73011,18.812 101.77311,19.061 101.08311,19.559 C100.39311,20.057 100.04811,20.792 100.04811,21.764 C100.04811,22.148 100.12011,22.517 100.26411,22.871 C100.40811,23.225 100.62411,23.54 100.91211,23.816 C101.20011,24.092 101.55711,24.314 101.98311,24.482 C102.40911,24.65 102.90411,24.734 103.46811,24.734 C104.05611,24.734 104.56911,24.638 105.00711,24.446 C105.44511,24.254 105.80811,23.984 106.09611,23.636 L106.13211,23.636 L106.20411,24.5 L108.38211,24.5 L108.38211,19.244 C108.38211,18.656 108.29811,18.128 108.13011,17.66 C107.96211,17.192 107.70411,16.79 107.35611,16.454 C107.00811,16.118 106.57011,15.86 106.04211,15.68 C105.51411,15.5 104.89011,15.41 104.17011,15.41 Z M79.1141104,15.644 L76.5401104,15.644 L76.5401104,20.72 C76.5401104,21.404 76.6271104,21.998 76.8011104,22.502 C76.9751104,23.006 77.2151104,23.42 77.5211104,23.744 C77.8271104,24.068 78.1811104,24.311 78.5831104,24.473 C78.9851104,24.635 79.4201104,24.716 79.8881104,24.716 L79.9601104,24.716 C80.4761104,24.716 80.9861104,24.602 81.4901104,24.374 C82.0181104,24.134 82.4741104,23.786 82.8581104,23.33 L82.8941104,23.33 L83.0021104,24.5 L85.1801104,24.5 L85.1801104,15.644 L82.6061104,15.644 L82.6061104,20.144 C82.6061104,20.408 82.5641104,20.669 82.4801104,20.927 C82.3961104,21.185 82.2761104,21.419 82.1201104,21.629 C81.9641104,21.839 81.7721104,22.007 81.5441104,22.133 C81.3161104,22.259 81.0581104,22.322 80.7701104,22.322 C80.3141104,22.322 79.9241104,22.172 79.6001104,21.872 C79.2761104,21.572 79.1141104,21.038 79.1141104,20.27 L79.1141104,15.644 Z M96.3401104,12.656 L93.7661104,12.656 L93.7661104,15.644 L92.2901104,15.644 L92.2901104,18.02 L93.7661104,18.02 L93.7661104,21.998 C93.7661104,22.97 94.0181104,23.666 94.5221104,24.086 C95.0261104,24.506 95.6921104,24.716 96.5201104,24.716 C96.9041104,24.716 97.2851104,24.692 97.6631104,24.644 C98.0411104,24.596 98.3861104,24.53 98.6981104,24.446 L98.3021104,22.088 C97.9661104,22.172 97.6841104,22.229 97.4561104,22.259 C97.2281104,22.289 97.0301104,22.304 96.8621104,22.304 C96.6941104,22.304 96.5651104,22.253 96.4751104,22.151 C96.3851104,22.049 96.3401104,21.86 96.3401104,21.584 L96.3401104,18.02 L98.5181104,18.02 L98.5181104,15.644 L96.3401104,15.644 L96.3401104,12.656 Z M70.8161104,15.428 C70.2521104,15.428 69.7481104,15.497 69.3041104,15.635 C68.8601104,15.773 68.4881104,15.965 68.1881104,16.211 C67.8881104,16.457 67.6601104,16.742 67.5041104,17.066 C67.3481104,17.39 67.2701104,17.738 67.2701104,18.11 C67.2701104,18.878 67.5311104,19.508 68.0531104,20 C68.5751104,20.492 69.3281104,20.84 70.3121104,21.044 C70.9481104,21.176 71.3861104,21.317 71.6261104,21.467 C71.8661104,21.617 71.9861104,21.794 71.9861104,21.998 C71.9861104,22.178 71.8901104,22.325 71.6981104,22.439 C71.5061104,22.553 71.1941104,22.61 70.7621104,22.61 C70.3061104,22.61 69.8681104,22.523 69.4481104,22.349 C69.0281104,22.175 68.6681104,21.956 68.3681104,21.692 L67.0181104,23.6 C67.2341104,23.768 67.4891104,23.918 67.7831104,24.05 C68.0771104,24.182 68.3891104,24.299 68.7191104,24.401 C69.0491104,24.503 69.3911104,24.581 69.7451104,24.635 C70.0991104,24.689 70.4441104,24.716 70.7801104,24.716 C71.9681104,24.716 72.8951104,24.458 73.5611104,23.942 C74.2271104,23.426 74.5601104,22.754 74.5601104,21.926 C74.5601104,21.566 74.5061104,21.236 74.3981104,20.936 C74.2901104,20.636 74.1071104,20.363 73.8491104,20.117 C73.5911104,19.871 73.2491104,19.649 72.8231104,19.451 C72.3971104,19.253 71.8721104,19.082 71.2481104,18.938 C70.6961104,18.806 70.3241104,18.677 70.1321104,18.551 C69.9401104,18.425 69.8441104,18.278 69.8441104,18.11 C69.8441104,17.942 69.9281104,17.807 70.0961104,17.705 C70.2641104,17.603 70.5161104,17.552 70.8521104,17.552 C71.2721104,17.552 71.6831104,17.624 72.0851104,17.768 C72.4871104,17.912 72.8441104,18.092 73.1561104,18.308 L74.5061104,16.4 C74.0141104,16.112 73.4531104,15.878 72.8231104,15.698 C72.1931104,15.518 71.5241104,15.428 70.8161104,15.428 Z M136.62411,15.428 C136.06011,15.428 135.55611,15.497 135.11211,15.635 C134.66811,15.773 134.29611,15.965 133.99611,16.211 C133.69611,16.457 133.46811,16.742 133.31211,17.066 C133.15611,17.39 133.07811,17.738 133.07811,18.11 C133.07811,18.878 133.33911,19.508 133.86111,20 C134.38311,20.492 135.13611,20.84 136.12011,21.044 C136.75611,21.176 137.19411,21.317 137.43411,21.467 C137.67411,21.617 137.79411,21.794 137.79411,21.998 C137.79411,22.178 137.69811,22.325 137.50611,22.439 C137.31411,22.553 137.00211,22.61 136.57011,22.61 C136.11411,22.61 135.67611,22.523 135.25611,22.349 C134.83611,22.175 134.47611,21.956 134.17611,21.692 L132.82611,23.6 C133.04211,23.768 133.29711,23.918 133.59111,24.05 C133.88511,24.182 134.19711,24.299 134.52711,24.401 C134.85711,24.503 135.19911,24.581 135.55311,24.635 C135.90711,24.689 136.25211,24.716 136.58811,24.716 C137.77611,24.716 138.70311,24.458 139.36911,23.942 C140.03511,23.426 140.36811,22.754 140.36811,21.926 C140.36811,21.566 140.31411,21.236 140.20611,20.936 C140.09811,20.636 139.91511,20.363 139.65711,20.117 C139.39911,19.871 139.05711,19.649 138.63111,19.451 C138.20511,19.253 137.68011,19.082 137.05611,18.938 C136.50411,18.806 136.13211,18.677 135.94011,18.551 C135.74811,18.425 135.65211,18.278 135.65211,18.11 C135.65211,17.942 135.73611,17.807 135.90411,17.705 C136.07211,17.603 136.32411,17.552 136.66011,17.552 C137.08011,17.552 137.49111,17.624 137.89311,17.768 C138.29511,17.912 138.65211,18.092 138.96411,18.308 L140.31411,16.4 C139.82211,16.112 139.26111,15.878 138.63111,15.698 C138.00111,15.518 137.33211,15.428 136.62411,15.428 Z M61.2041104,15.41 C60.5321104,15.41 59.9291104,15.53 59.3951104,15.77 C58.8611104,16.01 58.4021104,16.337 58.0181104,16.751 C57.6341104,17.165 57.3401104,17.657 57.1361104,18.227 C56.9321104,18.797 56.8301104,19.412 56.8301104,20.072 C56.8301104,20.732 56.9441104,21.347 57.1721104,21.917 C57.4001104,22.487 57.7151104,22.979 58.1171104,23.393 C58.5191104,23.807 58.9991104,24.131 59.5571104,24.365 C60.1151104,24.599 60.7301104,24.716 61.4021104,24.716 C62.1221104,24.716 62.8091104,24.587 63.4631104,24.329 C64.1171104,24.071 64.6541104,23.702 65.0741104,23.222 L63.2021104,21.494 C63.0101104,21.806 62.7581104,22.055 62.4461104,22.241 C62.1341104,22.427 61.7861104,22.52 61.4021104,22.52 C60.8981104,22.52 60.4811104,22.379 60.1511104,22.097 C59.8211104,21.815 59.5961104,21.416 59.4761104,20.9 L65.3981104,20.9 C65.4101104,20.744 65.4221104,20.609 65.4341104,20.495 C65.4461104,20.381 65.4521104,20.276 65.4521104,20.18 L65.4521104,19.604 C65.4521104,19.028 65.3681104,18.506 65.2001104,18.038 C64.9961104,17.486 64.7051104,17.015 64.3271104,16.625 C63.9491104,16.235 63.4931104,15.935 62.9591104,15.725 C62.4251104,15.515 61.8401104,15.41 61.2041104,15.41 Z M32.2241104,15.41 C31.5521104,15.41 30.9491104,15.53 30.4151104,15.77 C29.8811104,16.01 29.4221104,16.337 29.0381104,16.751 C28.6541104,17.165 28.3601104,17.657 28.1561104,18.227 C27.9521104,18.797 27.8501104,19.412 27.8501104,20.072 C27.8501104,20.732 27.9641104,21.347 28.1921104,21.917 C28.4201104,22.487 28.7351104,22.979 29.1371104,23.393 C29.5391104,23.807 30.0191104,24.131 30.5771104,24.365 C31.1351104,24.599 31.7501104,24.716 32.4221104,24.716 C33.1421104,24.716 33.8291104,24.587 34.4831104,24.329 C35.1371104,24.071 35.6741104,23.702 36.0941104,23.222 L34.2221104,21.494 C34.0301104,21.806 33.7781104,22.055 33.4661104,22.241 C33.1541104,22.427 32.8061104,22.52 32.4221104,22.52 C31.9181104,22.52 31.5011104,22.379 31.1711104,22.097 C30.8411104,21.815 30.6161104,21.416 30.4961104,20.9 L36.4181104,20.9 C36.4301104,20.744 36.4421104,20.609 36.4541104,20.495 C36.4661104,20.381 36.4721104,20.276 36.4721104,20.18 L36.4721104,19.604 C36.4721104,19.028 36.3881104,18.506 36.2201104,18.038 C36.0161104,17.486 35.7251104,17.015 35.3471104,16.625 C34.9691104,16.235 34.5131104,15.935 33.9791104,15.725 C33.4451104,15.515 32.8601104,15.41 32.2241104,15.41 Z M119.83011,11.45 L117.25611,11.45 L117.25611,16.364 L117.22011,16.364 C116.52411,15.74 115.67211,15.428 114.66411,15.428 C114.06411,15.428 113.51511,15.542 113.01711,15.77 C112.51911,15.998 112.08411,16.319 111.71211,16.733 C111.34011,17.147 111.05211,17.639 110.84811,18.209 C110.64411,18.779 110.54211,19.4 110.54211,20.072 C110.54211,20.744 110.64411,21.365 110.84811,21.935 C111.05211,22.505 111.34011,22.997 111.71211,23.411 C112.08411,23.825 112.51911,24.146 113.01711,24.374 C113.51511,24.602 114.06411,24.716 114.66411,24.716 C115.24011,24.716 115.77111,24.608 116.25711,24.392 C116.74311,24.176 117.16611,23.87 117.52611,23.474 L117.56211,23.474 L117.65211,24.5 L119.83011,24.5 L119.83011,11.45 Z M126.63411,15.428 C125.96211,15.428 125.34411,15.542 124.78011,15.77 C124.21611,15.998 123.72711,16.319 123.31311,16.733 C122.89911,17.147 122.57511,17.639 122.34111,18.209 C122.10711,18.779 121.99011,19.4 121.99011,20.072 C121.99011,20.744 122.10711,21.365 122.34111,21.935 C122.57511,22.505 122.89911,22.997 123.31311,23.411 C123.72711,23.825 124.21611,24.146 124.78011,24.374 C125.34411,24.602 125.96211,24.716 126.63411,24.716 C127.30611,24.716 127.92711,24.602 128.49711,24.374 C129.06711,24.146 129.55911,23.825 129.97311,23.411 C130.38711,22.997 130.71111,22.505 130.94511,21.935 C131.17911,21.365 131.29611,20.744 131.29611,20.072 C131.29611,19.4 131.17911,18.779 130.94511,18.209 C130.71111,17.639 130.38711,17.147 129.97311,16.733 C129.55911,16.319 129.06711,15.998 128.49711,15.77 C127.92711,15.542 127.30611,15.428 126.63411,15.428 Z M90.4541104,11.45 L87.8801104,11.45 L87.8801104,24.5 L90.4541104,24.5 L90.4541104,11.45 Z M54.5261104,15.428 C53.9981104,15.428 53.5391104,15.554 53.1491104,15.806 C52.7591104,16.058 52.4381104,16.418 52.1861104,16.886 L52.1501104,16.886 L52.0421104,15.644 L49.8641104,15.644 L49.8641104,24.5 L52.4381104,24.5 L52.4381104,20.018 C52.4381104,19.262 52.5551104,18.731 52.7891104,18.425 C53.0231104,18.119 53.3501104,17.966 53.7701104,17.966 C53.9981104,17.966 54.2501104,18.005 54.5261104,18.083 C54.8021104,18.161 55.0421104,18.23 55.2461104,18.29 L55.7501104,15.608 C55.5821104,15.56 55.3871104,15.518 55.1651104,15.482 C54.9431104,15.446 54.7301104,15.428 54.5261104,15.428 Z M43.3301104,15.428 C42.8021104,15.428 42.3431104,15.554 41.9531104,15.806 C41.5631104,16.058 41.2421104,16.418 40.9901104,16.886 L40.9541104,16.886 L40.8461104,15.644 L38.6681104,15.644 L38.6681104,24.5 L41.2421104,24.5 L41.2421104,20.018 C41.2421104,19.262 41.3591104,18.731 41.5931104,18.425 C41.8271104,18.119 42.1541104,17.966 42.5741104,17.966 C42.8021104,17.966 43.0541104,18.005 43.3301104,18.083 C43.6061104,18.161 43.8461104,18.23 44.0501104,18.29 L44.5541104,15.608 C44.3861104,15.56 44.1911104,15.518 43.9691104,15.482 C43.7471104,15.446 43.5341104,15.428 43.3301104,15.428 Z M16.9421104,12.224 L13.9901104,12.224 L19.2641104,24.5 L21.4961104,24.5 L26.7701104,12.224 L23.8181104,12.224 L22.0001104,16.562 C21.6881104,17.306 21.4061104,18.059 21.1541104,18.821 C20.9021104,19.583 20.6501104,20.342 20.3981104,21.098 L20.3621104,21.098 C20.1101104,20.342 19.8611104,19.583 19.6151104,18.821 C19.3691104,18.059 19.0901104,17.306 18.7781104,16.562 L16.9421104,12.224 Z M104.26011,20.702 C104.54811,20.702 104.82411,20.717 105.08811,20.747 C105.35211,20.777 105.59211,20.816 105.80811,20.864 L105.80811,20.918 C105.80811,21.23 105.75411,21.506 105.64611,21.746 C105.53811,21.986 105.39711,22.187 105.22311,22.349 C105.04911,22.511 104.84811,22.631 104.62011,22.709 C104.39211,22.787 104.15811,22.826 103.91811,22.826 C103.51011,22.826 103.19211,22.727 102.96411,22.529 C102.73611,22.331 102.62211,22.076 102.62211,21.764 C102.62211,21.056 103.16811,20.702 104.26011,20.702 Z M126.63411,17.876 C127.24611,17.876 127.74711,18.077 128.13711,18.479 C128.52711,18.881 128.72211,19.412 128.72211,20.072 C128.72211,20.732 128.52711,21.266 128.13711,21.674 C127.74711,22.082 127.24611,22.286 126.63411,22.286 C126.02211,22.286 125.52411,22.082 125.14011,21.674 C124.75611,21.266 124.56411,20.732 124.56411,20.072 C124.56411,19.412 124.75611,18.881 125.14011,18.479 C125.52411,18.077 126.02211,17.876 126.63411,17.876 Z M115.18611,17.858 C115.79811,17.858 116.29911,18.062 116.68911,18.47 C117.07911,18.878 117.27411,19.412 117.27411,20.072 C117.27411,20.732 117.07911,21.263 116.68911,21.665 C116.29911,22.067 115.79811,22.268 115.18611,22.268 C114.57411,22.268 114.07611,22.067 113.69211,21.665 C113.30811,21.263 113.11611,20.732 113.11611,20.072 C113.11611,19.412 113.30811,18.878 113.69211,18.47 C114.07611,18.062 114.57411,17.858 115.18611,17.858 Z M61.2041104,17.606 C61.7081104,17.606 62.1011104,17.762 62.3831104,18.074 C62.6651104,18.386 62.8181104,18.752 62.8421104,19.172 L59.4761104,19.172 C59.5721104,18.692 59.7581104,18.311 60.0341104,18.029 C60.3101104,17.747 60.7001104,17.606 61.2041104,17.606 Z M32.2241104,17.606 C32.7281104,17.606 33.1211104,17.762 33.4031104,18.074 C33.6851104,18.386 33.8381104,18.752 33.8621104,19.172 L30.4961104,19.172 C30.5921104,18.692 30.7781104,18.311 31.0541104,18.029 C31.3301104,17.747 31.7201104,17.606 32.2241104,17.606 Z" id="date-results-button" fill="#FFFFFF"></path>
    </g>
</svg>