<?xml version="1.0" encoding="UTF-8"?>
<svg width="31px" height="30px" viewBox="0 0 31 30" version="1.1" xmlns="http://www.w3.org/2000/svg" xmlns:xlink="http://www.w3.org/1999/xlink">
    <title>instagram</title>
    <g id="website" stroke="none" stroke-width="1" fill="none" fill-rule="evenodd">
        <g id="exports" transform="translate(-109, -188)" fill="#FFFFFF" fill-rule="nonzero">
            <path d="M118.514129,188.353158 C116.944723,188.427204 115.872985,188.677659 114.936062,189.045821 C113.966393,189.423717 113.14452,189.930824 112.326777,190.751517 C111.509035,191.572209 111.005468,192.394672 110.630227,193.365816 C110.26708,194.304804 110.02105,195.377428 109.951724,196.947718 C109.882399,198.518008 109.867059,199.022755 109.874729,203.028279 C109.882399,207.033803 109.900099,207.535895 109.976209,209.10943 C110.05114,210.678541 110.30071,211.749984 110.668872,212.687202 C111.047358,213.656871 111.553875,214.478449 112.374863,215.296486 C113.19585,216.114524 114.017723,216.616911 114.991227,216.992742 C115.92933,217.355299 117.002249,217.602509 118.572244,217.671245 C120.142239,217.73998 120.647576,217.75591 124.65192,217.74824 C128.656264,217.74057 129.160421,217.72287 130.733661,217.648235 C132.306902,217.573599 133.37274,217.322258 134.310253,216.955867 C135.279922,216.576496 136.10209,216.070864 136.919537,215.249581 C137.736985,214.428298 138.240257,213.605246 138.615203,212.633512 C138.978645,211.695409 139.22556,210.62249 139.293706,209.053675 C139.362441,207.479254 139.378666,206.976573 139.370996,202.971639 C139.363326,198.966705 139.345331,198.464613 139.270696,196.891668 C139.19606,195.318722 138.946194,194.250524 138.578328,193.312715 C138.199252,192.343047 137.693325,191.522059 136.872632,190.703431 C136.051939,189.884804 135.228297,189.381827 134.256858,189.007766 C133.318165,188.644619 132.245836,188.397113 130.675841,188.329263 C129.105845,188.261413 128.600509,188.244008 124.59469,188.251678 C120.588871,188.259348 120.087369,188.276458 118.514129,188.353158 M118.686409,215.017711 C117.248279,214.95517 116.467412,214.716219 115.94703,214.516209 C115.257908,214.250708 114.767026,213.929747 114.248414,213.41615 C113.729802,212.902553 113.411201,212.409901 113.14216,211.722254 C112.940085,211.201872 112.696709,210.42189 112.629449,208.98376 C112.556288,207.429399 112.540948,206.962708 112.532393,203.024739 C112.523838,199.08677 112.538883,198.620669 112.607028,197.065718 C112.668389,195.628768 112.908814,194.847016 113.10853,194.326929 C113.374031,193.636922 113.693812,193.146925 114.208589,192.628608 C114.723366,192.110291 115.214542,191.7911 115.90278,191.522059 C116.422572,191.319099 117.202554,191.077788 118.640094,191.009348 C120.195635,190.935597 120.661736,190.920847 124.599115,190.912292 C128.536494,190.903737 129.003775,190.918487 130.559906,190.986927 C131.996855,191.049468 132.778903,191.287533 133.2984,191.488429 C133.987817,191.75393 134.478404,192.072826 134.996721,192.588488 C135.515038,193.10415 135.834524,193.593556 136.103565,194.283269 C136.30682,194.801586 136.548131,195.581273 136.615981,197.019698 C136.690027,198.575239 136.706842,199.041635 136.713922,202.978719 C136.721002,206.915802 136.707137,207.383379 136.638992,208.937739 C136.576156,210.375869 136.337795,211.157032 136.13749,211.678004 C135.871989,212.366831 135.551913,212.858008 135.036841,213.37603 C134.521769,213.894052 134.031183,214.213243 133.34265,214.482284 C132.823448,214.684949 132.042581,214.92685 130.606221,214.99529 C129.05068,215.068451 128.584579,215.083791 124.645725,215.092346 C120.706871,215.100901 120.242245,215.084971 118.686704,215.017711 M130.710944,195.116647 C130.712141,195.8326 131.144528,196.477324 131.806462,196.750149 C132.468396,197.022974 133.229499,196.870163 133.734826,196.362979 C134.240152,195.855796 134.390172,195.094138 134.114921,194.433209 C133.839671,193.77228 133.193364,193.34226 132.477412,193.343687 C131.500095,193.345644 130.709315,194.139329 130.710944,195.116647 M117.049435,203.014709 C117.057709,207.197823 120.454941,210.58119 124.63717,210.573239 C128.819399,210.56526 132.205126,207.168323 132.197175,202.985209 C132.189196,198.802094 128.791079,195.417843 124.60826,195.426088 C120.42544,195.434363 117.041484,198.832185 117.049435,203.014709 M119.706218,203.009399 C119.700857,200.293943 121.897813,198.088276 124.613269,198.082891 C127.328724,198.077527 129.534394,200.27448 129.539783,202.989935 C129.545151,205.705391 127.348201,207.911064 124.632745,207.916457 C123.328685,207.919187 122.076964,207.403698 121.153028,206.483414 C120.229093,205.563129 119.708651,204.31346 119.706218,203.009399" id="instagram"></path>
        </g>
    </g>
</svg>