<?xml version="1.0" encoding="UTF-8"?>
<svg width="315px" height="41px" viewBox="0 0 315 41" version="1.1" xmlns="http://www.w3.org/2000/svg" xmlns:xlink="http://www.w3.org/1999/xlink">
    <title>live-button</title>
    <g id="website" stroke="none" stroke-width="1" fill="none" fill-rule="evenodd">
        <g id="web" transform="translate(-31, -421)">
            <g id="live-button" transform="translate(31.6471, 421)">
                <path d="M304.487856,0 L314,11.3259536 L305.358606,41 L0,41 L0,0 L304.487856,0 Z M288.055157,11.4320425 C287.87163,11.6155691 287.700072,11.7871266 287.540484,11.946715 L286.618861,12.8683379 C286.549706,12.9374928 286.485871,13.0013282 286.427355,13.0598439 L286.199942,13.2872573 C286.157385,13.3298142 286.120148,13.3670515 286.08823,13.3989692 L285.9446,13.5425987 L290.923348,18.4672299 C281.060711,18.5316151 275.598327,18.5672746 274.536196,18.5742083 L274.442017,18.5748232 C274.428937,18.5749086 274.417165,18.5749854 274.4067,18.5750537 L274.343914,18.5754636 L274.343914,21.6060059 L290.815115,21.6060059 L285.582998,26.5 C287.231104,28.0717738 288.055157,28.8576606 288.055157,28.8576606 C288.055157,28.8576606 290.093131,26.7985935 292.203891,24.6659882 L292.673348,24.1916724 C294.784108,22.0590672 296.822082,20 296.822082,20 L288.055157,11.4320425 Z M160.029033,17.41 C159.705033,17.41 159.372033,17.434 159.030033,17.482 C158.688033,17.53 158.349033,17.596 158.013033,17.68 C157.677033,17.764 157.353033,17.866 157.041033,17.986 C156.729033,18.106 156.441033,18.232 156.177033,18.364 L157.311033,20.38 C157.791033,20.068 158.262033,19.846 158.724033,19.714 C159.186033,19.582 159.633033,19.516 160.065033,19.516 C160.629033,19.516 161.037033,19.627 161.289033,19.849 C161.541033,20.071 161.667033,20.368 161.667033,20.74 L161.667033,20.956 C161.379033,20.908 161.079033,20.872 160.767033,20.848 C160.455033,20.824 160.137033,20.812 159.813033,20.812 C158.589033,20.812 157.632033,21.061 156.942033,21.559 C156.252033,22.057 155.907033,22.792 155.907033,23.764 C155.907033,24.148 155.979033,24.517 156.123033,24.871 C156.267033,25.225 156.483033,25.54 156.771033,25.816 C157.059033,26.092 157.416033,26.314 157.842033,26.482 C158.268033,26.65 158.763033,26.734 159.327033,26.734 C159.915033,26.734 160.428033,26.638 160.866033,26.446 C161.304033,26.254 161.667033,25.984 161.955033,25.636 L161.991033,25.636 L162.063033,26.5 L164.241033,26.5 L164.241033,21.244 C164.241033,20.656 164.157033,20.128 163.989033,19.66 C163.821033,19.192 163.563033,18.79 163.215033,18.454 C162.867033,18.118 162.429033,17.86 161.901033,17.68 C161.373033,17.5 160.749033,17.41 160.029033,17.41 Z M107.595033,17.41 C107.271033,17.41 106.938033,17.434 106.596033,17.482 C106.254033,17.53 105.915033,17.596 105.579033,17.68 C105.243033,17.764 104.919033,17.866 104.607033,17.986 C104.295033,18.106 104.007033,18.232 103.743033,18.364 L104.877033,20.38 C105.357033,20.068 105.828033,19.846 106.290033,19.714 C106.752033,19.582 107.199033,19.516 107.631033,19.516 C108.195033,19.516 108.603033,19.627 108.855033,19.849 C109.107033,20.071 109.233033,20.368 109.233033,20.74 L109.233033,20.956 C108.945033,20.908 108.645033,20.872 108.333033,20.848 C108.021033,20.824 107.703033,20.812 107.379033,20.812 C106.155033,20.812 105.198033,21.061 104.508033,21.559 C103.818033,22.057 103.473033,22.792 103.473033,23.764 C103.473033,24.148 103.545033,24.517 103.689033,24.871 C103.833033,25.225 104.049033,25.54 104.337033,25.816 C104.625033,26.092 104.982033,26.314 105.408033,26.482 C105.834033,26.65 106.329033,26.734 106.893033,26.734 C107.481033,26.734 107.994033,26.638 108.432033,26.446 C108.870033,26.254 109.233033,25.984 109.521033,25.636 L109.557033,25.636 L109.629033,26.5 L111.807033,26.5 L111.807033,21.244 C111.807033,20.656 111.723033,20.128 111.555033,19.66 C111.387033,19.192 111.129033,18.79 110.781033,18.454 C110.433033,18.118 109.995033,17.86 109.467033,17.68 C108.939033,17.5 108.315033,17.41 107.595033,17.41 Z M236.763033,13.99 C235.863033,13.99 235.023033,14.152 234.243033,14.476 C233.463033,14.8 232.788033,15.244 232.218033,15.808 C231.648033,16.372 231.201033,17.044 230.877033,17.824 C230.553033,18.604 230.391033,19.45 230.391033,20.362 C230.391033,21.274 230.553033,22.117 230.877033,22.891 C231.201033,23.665 231.648033,24.337 232.218033,24.907 C232.788033,25.477 233.463033,25.921 234.243033,26.239 C235.023033,26.557 235.863033,26.716 236.763033,26.716 C237.663033,26.716 238.500033,26.557 239.274033,26.239 C240.048033,25.921 240.720033,25.477 241.290033,24.907 C241.860033,24.337 242.307033,23.665 242.631033,22.891 C242.955033,22.117 243.117033,21.274 243.117033,20.362 C243.117033,19.45 242.955033,18.604 242.631033,17.824 C242.307033,17.044 241.860033,16.372 241.290033,15.808 C240.720033,15.244 240.048033,14.8 239.274033,14.476 C238.500033,14.152 237.663033,13.99 236.763033,13.99 Z M90.0630328,17.41 C89.3910328,17.41 88.7880328,17.53 88.2540328,17.77 C87.7200328,18.01 87.2610328,18.337 86.8770328,18.751 C86.4930328,19.165 86.1990328,19.657 85.9950328,20.227 C85.7910328,20.797 85.6890328,21.412 85.6890328,22.072 C85.6890328,22.732 85.8030328,23.347 86.0310328,23.917 C86.2590328,24.487 86.5740328,24.979 86.9760328,25.393 C87.3780328,25.807 87.8580328,26.131 88.4160328,26.365 C88.9740328,26.599 89.5890328,26.716 90.2610328,26.716 C90.9810328,26.716 91.6680328,26.587 92.3220328,26.329 C92.9760328,26.071 93.5130328,25.702 93.9330328,25.222 L92.0610328,23.494 C91.8690328,23.806 91.6170328,24.055 91.3050328,24.241 C90.9930328,24.427 90.6450328,24.52 90.2610328,24.52 C89.7570328,24.52 89.3400328,24.379 89.0100328,24.097 C88.6800328,23.815 88.4550328,23.416 88.3350328,22.9 L94.2570328,22.9 C94.2690328,22.744 94.2810328,22.609 94.2930328,22.495 C94.3050328,22.381 94.3110328,22.276 94.3110328,22.18 L94.3110328,21.604 C94.3110328,21.028 94.2270328,20.506 94.0590328,20.038 C93.8550328,19.486 93.5640328,19.015 93.1860328,18.625 C92.8080328,18.235 92.3520328,17.935 91.8180328,17.725 C91.2840328,17.515 90.6990328,17.41 90.0630328,17.41 Z M139.707033,17.428 C139.035033,17.428 138.417033,17.542 137.853033,17.77 C137.289033,17.998 136.800033,18.319 136.386033,18.733 C135.972033,19.147 135.648033,19.639 135.414033,20.209 C135.180033,20.779 135.063033,21.4 135.063033,22.072 C135.063033,22.744 135.180033,23.365 135.414033,23.935 C135.648033,24.505 135.972033,24.997 136.386033,25.411 C136.800033,25.825 137.289033,26.146 137.853033,26.374 C138.417033,26.602 139.035033,26.716 139.707033,26.716 C140.439033,26.716 141.102033,26.584 141.696033,26.32 C142.290033,26.056 142.797033,25.69 143.217033,25.222 L141.363033,23.458 C141.171033,23.71 140.937033,23.908 140.661033,24.052 C140.385033,24.196 140.067033,24.268 139.707033,24.268 C139.095033,24.268 138.597033,24.067 138.213033,23.665 C137.829033,23.263 137.637033,22.732 137.637033,22.072 C137.637033,21.412 137.829033,20.878 138.213033,20.47 C138.597033,20.062 139.095033,19.858 139.707033,19.858 C140.055033,19.858 140.370033,19.93 140.652033,20.074 C140.934033,20.218 141.165033,20.416 141.345033,20.668 L143.181033,18.886 C142.761033,18.43 142.257033,18.073 141.669033,17.815 C141.081033,17.557 140.427033,17.428 139.707033,17.428 Z M129.159033,17.41 C128.487033,17.41 127.884033,17.53 127.350033,17.77 C126.816033,18.01 126.357033,18.337 125.973033,18.751 C125.589033,19.165 125.295033,19.657 125.091033,20.227 C124.887033,20.797 124.785033,21.412 124.785033,22.072 C124.785033,22.732 124.899033,23.347 125.127033,23.917 C125.355033,24.487 125.670033,24.979 126.072033,25.393 C126.474033,25.807 126.954033,26.131 127.512033,26.365 C128.070033,26.599 128.685033,26.716 129.357033,26.716 C130.077033,26.716 130.764033,26.587 131.418033,26.329 C132.072033,26.071 132.609033,25.702 133.029033,25.222 L131.157033,23.494 C130.965033,23.806 130.713033,24.055 130.401033,24.241 C130.089033,24.427 129.741033,24.52 129.357033,24.52 C128.853033,24.52 128.436033,24.379 128.106033,24.097 C127.776033,23.815 127.551033,23.416 127.431033,22.9 L133.353033,22.9 C133.365033,22.744 133.377033,22.609 133.389033,22.495 C133.401033,22.381 133.407033,22.276 133.407033,22.18 L133.407033,21.604 C133.407033,21.028 133.323033,20.506 133.155033,20.038 C132.951033,19.486 132.660033,19.015 132.282033,18.625 C131.904033,18.235 131.448033,17.935 130.914033,17.725 C130.380033,17.515 129.795033,17.41 129.159033,17.41 Z M147.861033,13.45 L145.287033,13.45 L145.287033,26.5 L147.861033,26.5 L147.861033,22.018 C147.861033,21.754 147.903033,21.49 147.987033,21.226 C148.071033,20.962 148.191033,20.725 148.347033,20.515 C148.503033,20.305 148.695033,20.137 148.923033,20.011 C149.151033,19.885 149.409033,19.822 149.697033,19.822 C149.925033,19.822 150.138033,19.858 150.336033,19.93 C150.534033,20.002 150.708033,20.119 150.858033,20.281 C151.008033,20.443 151.128033,20.653 151.218033,20.911 C151.308033,21.169 151.353033,21.49 151.353033,21.874 L151.353033,26.5 L153.927033,26.5 L153.927033,21.424 C153.927033,20.74 153.840033,20.146 153.666033,19.642 C153.492033,19.138 153.252033,18.724 152.946033,18.4 C152.640033,18.076 152.283033,17.833 151.875033,17.671 C151.467033,17.509 151.035033,17.428 150.579033,17.428 L150.489033,17.428 C150.057033,17.428 149.619033,17.512 149.175033,17.68 C148.707033,17.872 148.281033,18.148 147.897033,18.508 L147.861033,18.508 L147.861033,13.45 Z M200.565033,14.224 L197.613033,14.224 L202.887033,26.5 L205.119033,26.5 L210.393033,14.224 L207.441033,14.224 L205.623033,18.562 C205.311033,19.306 205.029033,20.059 204.777033,20.821 C204.525033,21.583 204.273033,22.342 204.021033,23.098 L203.985033,23.098 C203.733033,22.342 203.484033,21.583 203.238033,20.821 C202.992033,20.059 202.713033,19.306 202.401033,18.562 L200.565033,14.224 Z M50.8950328,14.224 L45.5130328,14.224 L45.5130328,26.5 L48.1770328,26.5 L48.1770328,22.306 L50.8950328,22.306 C51.5190328,22.306 52.0980328,22.219 52.6320328,22.045 C53.1660328,21.871 53.6280328,21.613 54.0180328,21.271 C54.4080328,20.929 54.7110328,20.506 54.9270328,20.002 C55.1430328,19.498 55.2510328,18.916 55.2510328,18.256 C55.2510328,17.608 55.1430328,17.032 54.9270328,16.528 C54.7110328,16.024 54.4080328,15.601 54.0180328,15.259 C53.6280328,14.917 53.1660328,14.659 52.6320328,14.485 C52.0980328,14.311 51.5190328,14.224 50.8950328,14.224 Z M80.5950328,17.428 C79.9830328,17.428 79.4370328,17.563 78.9570328,17.833 C78.4770328,18.103 78.0810328,18.478 77.7690328,18.958 L77.7330328,18.958 C77.2170328,17.938 76.3470328,17.428 75.1230328,17.428 C74.5710328,17.428 74.0790328,17.536 73.6470328,17.752 C73.2150328,17.968 72.8430328,18.274 72.5310328,18.67 L72.4950328,18.67 L72.4230328,17.644 L70.1910328,17.644 L70.1910328,26.5 L72.7650328,26.5 L72.7650328,21.622 C72.7650328,21.082 72.8910328,20.65 73.1430328,20.326 C73.3950328,20.002 73.7550328,19.84 74.2230328,19.84 C74.6790328,19.84 75.0330328,19.993 75.2850328,20.299 C75.5370328,20.605 75.6630328,21.046 75.6630328,21.622 L75.6630328,26.5 L78.2370328,26.5 L78.2370328,21.622 C78.2370328,21.082 78.3600328,20.65 78.6060328,20.326 C78.8520328,20.002 79.2150328,19.84 79.6950328,19.84 C80.1510328,19.84 80.5050328,19.993 80.7570328,20.299 C81.0090328,20.605 81.1350328,21.046 81.1350328,21.622 L81.1350328,26.5 L83.7090328,26.5 L83.7090328,21.442 C83.7090328,20.134 83.4420328,19.138 82.9080328,18.454 C82.3740328,17.77 81.6030328,17.428 80.5950328,17.428 Z M67.4910328,17.644 L64.9170328,17.644 L64.9170328,26.5 L67.4910328,26.5 L67.4910328,17.644 Z M101.169033,17.428 C100.641033,17.428 100.182033,17.554 99.7920328,17.806 C99.4020328,18.058 99.0810328,18.418 98.8290328,18.886 L98.7930328,18.886 L98.6850328,17.644 L96.5070328,17.644 L96.5070328,26.5 L99.0810328,26.5 L99.0810328,22.018 C99.0810328,21.262 99.1980328,20.731 99.4320328,20.425 C99.6660328,20.119 99.9930328,19.966 100.413033,19.966 C100.641033,19.966 100.893033,20.005 101.169033,20.083 C101.445033,20.161 101.685033,20.23 101.889033,20.29 L102.393033,17.608 C102.225033,17.56 102.030033,17.518 101.808033,17.482 C101.586033,17.446 101.373033,17.428 101.169033,17.428 Z M62.0730328,17.428 C61.5450328,17.428 61.0860328,17.554 60.6960328,17.806 C60.3060328,18.058 59.9850328,18.418 59.7330328,18.886 L59.6970328,18.886 L59.5890328,17.644 L57.4110328,17.644 L57.4110328,26.5 L59.9850328,26.5 L59.9850328,22.018 C59.9850328,21.262 60.1020328,20.731 60.3360328,20.425 C60.5700328,20.119 60.8970328,19.966 61.3170328,19.966 C61.5450328,19.966 61.7970328,20.005 62.0730328,20.083 C62.3490328,20.161 62.5890328,20.23 62.7930328,20.29 L63.2970328,17.608 C63.1290328,17.56 62.9340328,17.518 62.7120328,17.482 C62.4900328,17.446 62.2770328,17.428 62.0730328,17.428 Z M214.767033,14.224 L212.103033,14.224 L212.103033,26.5 L214.767033,26.5 L214.767033,14.224 Z M179.271033,14.224 L170.721033,14.224 L170.721033,26.5 L179.433033,26.5 L179.433033,23.98 L173.385033,23.98 L173.385033,21.604 L178.767033,21.604 L178.767033,19.084 L173.385033,19.084 L173.385033,16.744 L179.271033,16.744 L179.271033,14.224 Z M183.897033,14.224 L181.683033,14.224 L181.683033,26.5 L184.347033,26.5 L184.347033,21.838 C184.347033,21.358 184.341033,20.881 184.329033,20.407 C184.317033,19.933 184.305033,19.456 184.293033,18.976 L184.329033,18.976 L189.981033,26.5 L192.213033,26.5 L192.213033,14.224 L189.549033,14.224 L189.549033,18.886 C189.549033,19.366 189.555033,19.843 189.567033,20.317 C189.579033,20.791 189.591033,21.268 189.603033,21.748 L189.567033,21.748 L183.897033,14.224 Z M121.743033,13.234 C120.723033,13.234 119.958033,13.543 119.448033,14.161 C118.938033,14.779 118.683033,15.676 118.683033,16.852 L118.683033,17.644 L117.387033,17.644 L117.387033,20.02 L118.683033,20.02 L118.683033,26.5 L121.257033,26.5 L121.257033,20.02 L123.615033,20.02 L123.615033,17.644 L121.257033,17.644 L121.257033,16.834 C121.257033,16.462 121.314033,16.171 121.428033,15.961 C121.542033,15.751 121.749033,15.646 122.049033,15.646 C122.253033,15.646 122.469033,15.673 122.697033,15.727 C122.925033,15.781 123.135033,15.838 123.327033,15.898 L123.795033,13.468 C123.483033,13.408 123.141033,13.354 122.769033,13.306 C122.397033,13.258 122.055033,13.234 121.743033,13.234 Z M219.429033,14.224 L216.477033,14.224 L221.751033,26.5 L223.983033,26.5 L229.257033,14.224 L226.305033,14.224 L224.487033,18.562 C224.175033,19.306 223.893033,20.059 223.641033,20.821 C223.389033,21.583 223.137033,22.342 222.885033,23.098 L222.849033,23.098 C222.597033,22.342 222.348033,21.583 222.102033,20.821 C221.856033,20.059 221.577033,19.306 221.265033,18.562 L219.429033,14.224 Z M107.685033,22.702 C107.973033,22.702 108.249033,22.717 108.513033,22.747 C108.777033,22.777 109.017033,22.816 109.233033,22.864 L109.233033,22.918 C109.233033,23.23 109.179033,23.506 109.071033,23.746 C108.963033,23.986 108.822033,24.187 108.648033,24.349 C108.474033,24.511 108.273033,24.631 108.045033,24.709 C107.817033,24.787 107.583033,24.826 107.343033,24.826 C106.935033,24.826 106.617033,24.727 106.389033,24.529 C106.161033,24.331 106.047033,24.076 106.047033,23.764 C106.047033,23.056 106.593033,22.702 107.685033,22.702 Z M160.119033,22.702 C160.407033,22.702 160.683033,22.717 160.947033,22.747 C161.211033,22.777 161.451033,22.816 161.667033,22.864 L161.667033,22.918 C161.667033,23.23 161.613033,23.506 161.505033,23.746 C161.397033,23.986 161.256033,24.187 161.082033,24.349 C160.908033,24.511 160.707033,24.631 160.479033,24.709 C160.251033,24.787 160.017033,24.826 159.777033,24.826 C159.369033,24.826 159.051033,24.727 158.823033,24.529 C158.595033,24.331 158.481033,24.076 158.481033,23.764 C158.481033,23.056 159.027033,22.702 160.119033,22.702 Z M236.763033,16.51 C237.291033,16.51 237.780033,16.606 238.230033,16.798 C238.680033,16.99 239.070033,17.257 239.400033,17.599 C239.730033,17.941 239.988033,18.346 240.174033,18.814 C240.360033,19.282 240.453033,19.798 240.453033,20.362 C240.453033,20.926 240.360033,21.442 240.174033,21.91 C239.988033,22.378 239.730033,22.783 239.400033,23.125 C239.070033,23.467 238.680033,23.731 238.230033,23.917 C237.780033,24.103 237.291033,24.196 236.763033,24.196 C236.223033,24.196 235.728033,24.103 235.278033,23.917 C234.828033,23.731 234.438033,23.467 234.108033,23.125 C233.778033,22.783 233.520033,22.378 233.334033,21.91 C233.148033,21.442 233.055033,20.926 233.055033,20.362 C233.055033,19.798 233.148033,19.282 233.334033,18.814 C233.520033,18.346 233.778033,17.941 234.108033,17.599 C234.438033,17.257 234.828033,16.99 235.278033,16.798 C235.728033,16.606 236.223033,16.51 236.763033,16.51 Z M129.159033,19.606 C129.663033,19.606 130.056033,19.762 130.338033,20.074 C130.620033,20.386 130.773033,20.752 130.797033,21.172 L127.431033,21.172 C127.527033,20.692 127.713033,20.311 127.989033,20.029 C128.265033,19.747 128.655033,19.606 129.159033,19.606 Z M90.0630328,19.606 C90.5670328,19.606 90.9600328,19.762 91.2420328,20.074 C91.5240328,20.386 91.6770328,20.752 91.7010328,21.172 L88.3350328,21.172 C88.4310328,20.692 88.6170328,20.311 88.8930328,20.029 C89.1690328,19.747 89.5590328,19.606 90.0630328,19.606 Z M50.8770328,16.744 C51.3810328,16.744 51.7890328,16.867 52.1010328,17.113 C52.4130328,17.359 52.5690328,17.74 52.5690328,18.256 C52.5690328,18.784 52.4130328,19.171 52.1010328,19.417 C51.7890328,19.663 51.3810328,19.786 50.8770328,19.786 L48.1770328,19.786 L48.1770328,16.744 L50.8770328,16.744 Z M66.2130328,13.594 C65.7810328,13.594 65.4270328,13.732 65.1510328,14.008 C64.8750328,14.284 64.7370328,14.614 64.7370328,14.998 C64.7370328,15.382 64.8750328,15.709 65.1510328,15.979 C65.4270328,16.249 65.7810328,16.384 66.2130328,16.384 C66.6450328,16.384 66.9960328,16.249 67.2660328,15.979 C67.5360328,15.709 67.6710328,15.382 67.6710328,14.998 C67.6710328,14.614 67.5360328,14.284 67.2660328,14.008 C66.9960328,13.732 66.6450328,13.594 66.2130328,13.594 Z" fill="#FFC13A"></path>
                <circle id="Oval" fill="#FF423A" cx="21" cy="20.5" r="8"></circle>
            </g>
        </g>
    </g>
</svg>