<?xml version="1.0" encoding="UTF-8"?>
<svg width="315px" height="41px" viewBox="0 0 315 41" version="1.1" xmlns="http://www.w3.org/2000/svg" xmlns:xlink="http://www.w3.org/1999/xlink">
    <title>live-button</title>
    <g id="website" stroke="none" stroke-width="1" fill="none" fill-rule="evenodd">
        <g id="web" transform="translate(-31, -421)">
            <g id="live-button" transform="translate(31.6471, 421)">
                <path d="M304.487856,0 L314,11.3259536 L305.358606,41 L0,41 L0,0 L304.487856,0 Z M288.055157,11.4320425 C287.87163,11.6155691 287.700072,11.7871266 287.540484,11.946715 L286.618861,12.8683379 C286.549706,12.9374928 286.485871,13.0013282 286.427355,13.0598439 L286.199942,13.2872573 C286.157385,13.3298142 286.120148,13.3670515 286.08823,13.3989692 L285.9446,13.5425987 L290.923348,18.4672299 C281.060711,18.5316151 275.598327,18.5672746 274.536196,18.5742083 L274.442017,18.5748232 C274.428937,18.5749086 274.417165,18.5749854 274.4067,18.5750537 L274.343914,18.5754636 L274.343914,21.6060059 L290.815115,21.6060059 L285.582998,26.5 C287.231104,28.0717738 288.055157,28.8576606 288.055157,28.8576606 C288.055157,28.8576606 290.093131,26.7985935 292.203891,24.6659882 L292.673348,24.1916724 C294.784108,22.0590672 296.822082,20 296.822082,20 L288.055157,11.4320425 Z M157.347033,17.41 C157.023033,17.41 156.690033,17.434 156.348033,17.482 C156.006033,17.53 155.667033,17.596 155.331033,17.68 C154.995033,17.764 154.671033,17.866 154.359033,17.986 C154.047033,18.106 153.759033,18.232 153.495033,18.364 L154.629033,20.38 C155.109033,20.068 155.580033,19.846 156.042033,19.714 C156.504033,19.582 156.951033,19.516 157.383033,19.516 C157.947033,19.516 158.355033,19.627 158.607033,19.849 C158.859033,20.071 158.985033,20.368 158.985033,20.74 L158.985033,20.956 C158.697033,20.908 158.397033,20.872 158.085033,20.848 C157.773033,20.824 157.455033,20.812 157.131033,20.812 C155.907033,20.812 154.950033,21.061 154.260033,21.559 C153.570033,22.057 153.225033,22.792 153.225033,23.764 C153.225033,24.148 153.297033,24.517 153.441033,24.871 C153.585033,25.225 153.801033,25.54 154.089033,25.816 C154.377033,26.092 154.734033,26.314 155.160033,26.482 C155.586033,26.65 156.081033,26.734 156.645033,26.734 C157.233033,26.734 157.746033,26.638 158.184033,26.446 C158.622033,26.254 158.985033,25.984 159.273033,25.636 L159.309033,25.636 L159.381033,26.5 L161.559033,26.5 L161.559033,21.244 C161.559033,20.656 161.475033,20.128 161.307033,19.66 C161.139033,19.192 160.881033,18.79 160.533033,18.454 C160.185033,18.118 159.747033,17.86 159.219033,17.68 C158.691033,17.5 158.067033,17.41 157.347033,17.41 Z M104.913033,17.41 C104.589033,17.41 104.256033,17.434 103.914033,17.482 C103.572033,17.53 103.233033,17.596 102.897033,17.68 C102.561033,17.764 102.237033,17.866 101.925033,17.986 C101.613033,18.106 101.325033,18.232 101.061033,18.364 L102.195033,20.38 C102.675033,20.068 103.146033,19.846 103.608033,19.714 C104.070033,19.582 104.517033,19.516 104.949033,19.516 C105.513033,19.516 105.921033,19.627 106.173033,19.849 C106.425033,20.071 106.551033,20.368 106.551033,20.74 L106.551033,20.956 C106.263033,20.908 105.963033,20.872 105.651033,20.848 C105.339033,20.824 105.021033,20.812 104.697033,20.812 C103.473033,20.812 102.516033,21.061 101.826033,21.559 C101.136033,22.057 100.791033,22.792 100.791033,23.764 C100.791033,24.148 100.863033,24.517 101.007033,24.871 C101.151033,25.225 101.367033,25.54 101.655033,25.816 C101.943033,26.092 102.300033,26.314 102.726033,26.482 C103.152033,26.65 103.647033,26.734 104.211033,26.734 C104.799033,26.734 105.312033,26.638 105.750033,26.446 C106.188033,26.254 106.551033,25.984 106.839033,25.636 L106.875033,25.636 L106.947033,26.5 L109.125033,26.5 L109.125033,21.244 C109.125033,20.656 109.041033,20.128 108.873033,19.66 C108.705033,19.192 108.447033,18.79 108.099033,18.454 C107.751033,18.118 107.313033,17.86 106.785033,17.68 C106.257033,17.5 105.633033,17.41 104.913033,17.41 Z M126.477033,17.41 C125.805033,17.41 125.202033,17.53 124.668033,17.77 C124.134033,18.01 123.675033,18.337 123.291033,18.751 C122.907033,19.165 122.613033,19.657 122.409033,20.227 C122.205033,20.797 122.103033,21.412 122.103033,22.072 C122.103033,22.732 122.217033,23.347 122.445033,23.917 C122.673033,24.487 122.988033,24.979 123.390033,25.393 C123.792033,25.807 124.272033,26.131 124.830033,26.365 C125.388033,26.599 126.003033,26.716 126.675033,26.716 C127.395033,26.716 128.082033,26.587 128.736033,26.329 C129.390033,26.071 129.927033,25.702 130.347033,25.222 L128.475033,23.494 C128.283033,23.806 128.031033,24.055 127.719033,24.241 C127.407033,24.427 127.059033,24.52 126.675033,24.52 C126.171033,24.52 125.754033,24.379 125.424033,24.097 C125.094033,23.815 124.869033,23.416 124.749033,22.9 L130.671033,22.9 C130.683033,22.744 130.695033,22.609 130.707033,22.495 C130.719033,22.381 130.725033,22.276 130.725033,22.18 L130.725033,21.604 C130.725033,21.028 130.641033,20.506 130.473033,20.038 C130.269033,19.486 129.978033,19.015 129.600033,18.625 C129.222033,18.235 128.766033,17.935 128.232033,17.725 C127.698033,17.515 127.113033,17.41 126.477033,17.41 Z M234.081033,13.99 C233.181033,13.99 232.341033,14.152 231.561033,14.476 C230.781033,14.8 230.106033,15.244 229.536033,15.808 C228.966033,16.372 228.519033,17.044 228.195033,17.824 C227.871033,18.604 227.709033,19.45 227.709033,20.362 C227.709033,21.274 227.871033,22.117 228.195033,22.891 C228.519033,23.665 228.966033,24.337 229.536033,24.907 C230.106033,25.477 230.781033,25.921 231.561033,26.239 C232.341033,26.557 233.181033,26.716 234.081033,26.716 C234.981033,26.716 235.818033,26.557 236.592033,26.239 C237.366033,25.921 238.038033,25.477 238.608033,24.907 C239.178033,24.337 239.625033,23.665 239.949033,22.891 C240.273033,22.117 240.435033,21.274 240.435033,20.362 C240.435033,19.45 240.273033,18.604 239.949033,17.824 C239.625033,17.044 239.178033,16.372 238.608033,15.808 C238.038033,15.244 237.366033,14.8 236.592033,14.476 C235.818033,14.152 234.981033,13.99 234.081033,13.99 Z M59.9130328,17.41 C59.2410328,17.41 58.6380328,17.53 58.1040328,17.77 C57.5700328,18.01 57.1110328,18.337 56.7270328,18.751 C56.3430328,19.165 56.0490328,19.657 55.8450328,20.227 C55.6410328,20.797 55.5390328,21.412 55.5390328,22.072 C55.5390328,22.732 55.6530328,23.347 55.8810328,23.917 C56.1090328,24.487 56.4240328,24.979 56.8260328,25.393 C57.2280328,25.807 57.7080328,26.131 58.2660328,26.365 C58.8240328,26.599 59.4390328,26.716 60.1110328,26.716 C60.8310328,26.716 61.5180328,26.587 62.1720328,26.329 C62.8260328,26.071 63.3630328,25.702 63.7830328,25.222 L61.9110328,23.494 C61.7190328,23.806 61.4670328,24.055 61.1550328,24.241 C60.8430328,24.427 60.4950328,24.52 60.1110328,24.52 C59.6070328,24.52 59.1900328,24.379 58.8600328,24.097 C58.5300328,23.815 58.3050328,23.416 58.1850328,22.9 L64.1070328,22.9 C64.1190328,22.744 64.1310328,22.609 64.1430328,22.495 C64.1550328,22.381 64.1610328,22.276 64.1610328,22.18 L64.1610328,21.604 C64.1610328,21.028 64.0770328,20.506 63.9090328,20.038 C63.7050328,19.486 63.4140328,19.015 63.0360328,18.625 C62.6580328,18.235 62.2020328,17.935 61.6680328,17.725 C61.1340328,17.515 60.5490328,17.41 59.9130328,17.41 Z M137.025033,17.428 C136.353033,17.428 135.735033,17.542 135.171033,17.77 C134.607033,17.998 134.118033,18.319 133.704033,18.733 C133.290033,19.147 132.966033,19.639 132.732033,20.209 C132.498033,20.779 132.381033,21.4 132.381033,22.072 C132.381033,22.744 132.498033,23.365 132.732033,23.935 C132.966033,24.505 133.290033,24.997 133.704033,25.411 C134.118033,25.825 134.607033,26.146 135.171033,26.374 C135.735033,26.602 136.353033,26.716 137.025033,26.716 C137.757033,26.716 138.420033,26.584 139.014033,26.32 C139.608033,26.056 140.115033,25.69 140.535033,25.222 L138.681033,23.458 C138.489033,23.71 138.255033,23.908 137.979033,24.052 C137.703033,24.196 137.385033,24.268 137.025033,24.268 C136.413033,24.268 135.915033,24.067 135.531033,23.665 C135.147033,23.263 134.955033,22.732 134.955033,22.072 C134.955033,21.412 135.147033,20.878 135.531033,20.47 C135.915033,20.062 136.413033,19.858 137.025033,19.858 C137.373033,19.858 137.688033,19.93 137.970033,20.074 C138.252033,20.218 138.483033,20.416 138.663033,20.668 L140.499033,18.886 C140.079033,18.43 139.575033,18.073 138.987033,17.815 C138.399033,17.557 137.745033,17.428 137.025033,17.428 Z M87.3810328,17.41 C86.7090328,17.41 86.1060328,17.53 85.5720328,17.77 C85.0380328,18.01 84.5790328,18.337 84.1950328,18.751 C83.8110328,19.165 83.5170328,19.657 83.3130328,20.227 C83.1090328,20.797 83.0070328,21.412 83.0070328,22.072 C83.0070328,22.732 83.1210328,23.347 83.3490328,23.917 C83.5770328,24.487 83.8920328,24.979 84.2940328,25.393 C84.6960328,25.807 85.1760328,26.131 85.7340328,26.365 C86.2920328,26.599 86.9070328,26.716 87.5790328,26.716 C88.2990328,26.716 88.9860328,26.587 89.6400328,26.329 C90.2940328,26.071 90.8310328,25.702 91.2510328,25.222 L89.3790328,23.494 C89.1870328,23.806 88.9350328,24.055 88.6230328,24.241 C88.3110328,24.427 87.9630328,24.52 87.5790328,24.52 C87.0750328,24.52 86.6580328,24.379 86.3280328,24.097 C85.9980328,23.815 85.7730328,23.416 85.6530328,22.9 L91.5750328,22.9 C91.5870328,22.744 91.5990328,22.609 91.6110328,22.495 C91.6230328,22.381 91.6290328,22.276 91.6290328,22.18 L91.6290328,21.604 C91.6290328,21.028 91.5450328,20.506 91.3770328,20.038 C91.1730328,19.486 90.8820328,19.015 90.5040328,18.625 C90.1260328,18.235 89.6700328,17.935 89.1360328,17.725 C88.6020328,17.515 88.0170328,17.41 87.3810328,17.41 Z M77.9670328,17.428 C77.2950328,17.428 76.6770328,17.542 76.1130328,17.77 C75.5490328,17.998 75.0600328,18.319 74.6460328,18.733 C74.2320328,19.147 73.9080328,19.639 73.6740328,20.209 C73.4400328,20.779 73.3230328,21.4 73.3230328,22.072 C73.3230328,22.744 73.4400328,23.365 73.6740328,23.935 C73.9080328,24.505 74.2320328,24.997 74.6460328,25.411 C75.0600328,25.825 75.5490328,26.146 76.1130328,26.374 C76.6770328,26.602 77.2950328,26.716 77.9670328,26.716 C78.6990328,26.716 79.3620328,26.584 79.9560328,26.32 C80.5500328,26.056 81.0570328,25.69 81.4770328,25.222 L79.6230328,23.458 C79.4310328,23.71 79.1970328,23.908 78.9210328,24.052 C78.6450328,24.196 78.3270328,24.268 77.9670328,24.268 C77.3550328,24.268 76.8570328,24.067 76.4730328,23.665 C76.0890328,23.263 75.8970328,22.732 75.8970328,22.072 C75.8970328,21.412 76.0890328,20.878 76.4730328,20.47 C76.8570328,20.062 77.3550328,19.858 77.9670328,19.858 C78.3150328,19.858 78.6300328,19.93 78.9120328,20.074 C79.1940328,20.218 79.4250328,20.416 79.6050328,20.668 L81.4410328,18.886 C81.0210328,18.43 80.5170328,18.073 79.9290328,17.815 C79.3410328,17.557 78.6870328,17.428 77.9670328,17.428 Z M145.179033,13.45 L142.605033,13.45 L142.605033,26.5 L145.179033,26.5 L145.179033,22.018 C145.179033,21.754 145.221033,21.49 145.305033,21.226 C145.389033,20.962 145.509033,20.725 145.665033,20.515 C145.821033,20.305 146.013033,20.137 146.241033,20.011 C146.469033,19.885 146.727033,19.822 147.015033,19.822 C147.243033,19.822 147.456033,19.858 147.654033,19.93 C147.852033,20.002 148.026033,20.119 148.176033,20.281 C148.326033,20.443 148.446033,20.653 148.536033,20.911 C148.626033,21.169 148.671033,21.49 148.671033,21.874 L148.671033,26.5 L151.245033,26.5 L151.245033,21.424 C151.245033,20.74 151.158033,20.146 150.984033,19.642 C150.810033,19.138 150.570033,18.724 150.264033,18.4 C149.958033,18.076 149.601033,17.833 149.193033,17.671 C148.785033,17.509 148.353033,17.428 147.897033,17.428 L147.807033,17.428 C147.375033,17.428 146.937033,17.512 146.493033,17.68 C146.025033,17.872 145.599033,18.148 145.215033,18.508 L145.179033,18.508 L145.179033,13.45 Z M176.589033,14.224 L168.039033,14.224 L168.039033,26.5 L176.751033,26.5 L176.751033,23.98 L170.703033,23.98 L170.703033,21.604 L176.085033,21.604 L176.085033,19.084 L170.703033,19.084 L170.703033,16.744 L176.589033,16.744 L176.589033,14.224 Z M71.0190328,17.428 C70.4910328,17.428 70.0320328,17.554 69.6420328,17.806 C69.2520328,18.058 68.9310328,18.418 68.6790328,18.886 L68.6430328,18.886 L68.5350328,17.644 L66.3570328,17.644 L66.3570328,26.5 L68.9310328,26.5 L68.9310328,22.018 C68.9310328,21.262 69.0480328,20.731 69.2820328,20.425 C69.5160328,20.119 69.8430328,19.966 70.2630328,19.966 C70.4910328,19.966 70.7430328,20.005 71.0190328,20.083 C71.2950328,20.161 71.5350328,20.23 71.7390328,20.29 L72.2430328,17.608 C72.0750328,17.56 71.8800328,17.518 71.6580328,17.482 C71.4360328,17.446 71.2230328,17.428 71.0190328,17.428 Z M212.085033,14.224 L209.421033,14.224 L209.421033,26.5 L212.085033,26.5 L212.085033,14.224 Z M119.061033,13.234 C118.041033,13.234 117.276033,13.543 116.766033,14.161 C116.256033,14.779 116.001033,15.676 116.001033,16.852 L116.001033,17.644 L114.705033,17.644 L114.705033,20.02 L116.001033,20.02 L116.001033,26.5 L118.575033,26.5 L118.575033,20.02 L120.933033,20.02 L120.933033,17.644 L118.575033,17.644 L118.575033,16.834 C118.575033,16.462 118.632033,16.171 118.746033,15.961 C118.860033,15.751 119.067033,15.646 119.367033,15.646 C119.571033,15.646 119.787033,15.673 120.015033,15.727 C120.243033,15.781 120.453033,15.838 120.645033,15.898 L121.113033,13.468 C120.801033,13.408 120.459033,13.354 120.087033,13.306 C119.715033,13.258 119.373033,13.234 119.061033,13.234 Z M216.747033,14.224 L213.795033,14.224 L219.069033,26.5 L221.301033,26.5 L226.575033,14.224 L223.623033,14.224 L221.805033,18.562 C221.493033,19.306 221.211033,20.059 220.959033,20.821 C220.707033,21.583 220.455033,22.342 220.203033,23.098 L220.167033,23.098 C219.915033,22.342 219.666033,21.583 219.420033,20.821 C219.174033,20.059 218.895033,19.306 218.583033,18.562 L216.747033,14.224 Z M181.215033,14.224 L179.001033,14.224 L179.001033,26.5 L181.665033,26.5 L181.665033,21.838 C181.665033,21.358 181.659033,20.881 181.647033,20.407 C181.635033,19.933 181.623033,19.456 181.611033,18.976 L181.647033,18.976 L187.299033,26.5 L189.531033,26.5 L189.531033,14.224 L186.867033,14.224 L186.867033,18.886 C186.867033,19.366 186.873033,19.843 186.885033,20.317 C186.897033,20.791 186.909033,21.268 186.921033,21.748 L186.885033,21.748 L181.215033,14.224 Z M54.3690328,14.224 L44.4330328,14.224 L44.4330328,16.744 L48.0690328,16.744 L48.0690328,26.5 L50.7330328,26.5 L50.7330328,16.744 L54.3690328,16.744 L54.3690328,14.224 Z M197.883033,14.224 L194.931033,14.224 L200.205033,26.5 L202.437033,26.5 L207.711033,14.224 L204.759033,14.224 L202.941033,18.562 C202.629033,19.306 202.347033,20.059 202.095033,20.821 C201.843033,21.583 201.591033,22.342 201.339033,23.098 L201.303033,23.098 C201.051033,22.342 200.802033,21.583 200.556033,20.821 C200.310033,20.059 200.031033,19.306 199.719033,18.562 L197.883033,14.224 Z M98.4870328,17.428 C97.9590328,17.428 97.5000328,17.554 97.1100328,17.806 C96.7200328,18.058 96.3990328,18.418 96.1470328,18.886 L96.1110328,18.886 L96.0030328,17.644 L93.8250328,17.644 L93.8250328,26.5 L96.3990328,26.5 L96.3990328,22.018 C96.3990328,21.262 96.5160328,20.731 96.7500328,20.425 C96.9840328,20.119 97.3110328,19.966 97.7310328,19.966 C97.9590328,19.966 98.2110328,20.005 98.4870328,20.083 C98.7630328,20.161 99.0030328,20.23 99.2070328,20.29 L99.7110328,17.608 C99.5430328,17.56 99.3480328,17.518 99.1260328,17.482 C98.9040328,17.446 98.6910328,17.428 98.4870328,17.428 Z M157.437033,22.702 C157.725033,22.702 158.001033,22.717 158.265033,22.747 C158.529033,22.777 158.769033,22.816 158.985033,22.864 L158.985033,22.918 C158.985033,23.23 158.931033,23.506 158.823033,23.746 C158.715033,23.986 158.574033,24.187 158.400033,24.349 C158.226033,24.511 158.025033,24.631 157.797033,24.709 C157.569033,24.787 157.335033,24.826 157.095033,24.826 C156.687033,24.826 156.369033,24.727 156.141033,24.529 C155.913033,24.331 155.799033,24.076 155.799033,23.764 C155.799033,23.056 156.345033,22.702 157.437033,22.702 Z M105.003033,22.702 C105.291033,22.702 105.567033,22.717 105.831033,22.747 C106.095033,22.777 106.335033,22.816 106.551033,22.864 L106.551033,22.918 C106.551033,23.23 106.497033,23.506 106.389033,23.746 C106.281033,23.986 106.140033,24.187 105.966033,24.349 C105.792033,24.511 105.591033,24.631 105.363033,24.709 C105.135033,24.787 104.901033,24.826 104.661033,24.826 C104.253033,24.826 103.935033,24.727 103.707033,24.529 C103.479033,24.331 103.365033,24.076 103.365033,23.764 C103.365033,23.056 103.911033,22.702 105.003033,22.702 Z M234.081033,16.51 C234.609033,16.51 235.098033,16.606 235.548033,16.798 C235.998033,16.99 236.388033,17.257 236.718033,17.599 C237.048033,17.941 237.306033,18.346 237.492033,18.814 C237.678033,19.282 237.771033,19.798 237.771033,20.362 C237.771033,20.926 237.678033,21.442 237.492033,21.91 C237.306033,22.378 237.048033,22.783 236.718033,23.125 C236.388033,23.467 235.998033,23.731 235.548033,23.917 C235.098033,24.103 234.609033,24.196 234.081033,24.196 C233.541033,24.196 233.046033,24.103 232.596033,23.917 C232.146033,23.731 231.756033,23.467 231.426033,23.125 C231.096033,22.783 230.838033,22.378 230.652033,21.91 C230.466033,21.442 230.373033,20.926 230.373033,20.362 C230.373033,19.798 230.466033,19.282 230.652033,18.814 C230.838033,18.346 231.096033,17.941 231.426033,17.599 C231.756033,17.257 232.146033,16.99 232.596033,16.798 C233.046033,16.606 233.541033,16.51 234.081033,16.51 Z M87.3810328,19.606 C87.8850328,19.606 88.2780328,19.762 88.5600328,20.074 C88.8420328,20.386 88.9950328,20.752 89.0190328,21.172 L85.6530328,21.172 C85.7490328,20.692 85.9350328,20.311 86.2110328,20.029 C86.4870328,19.747 86.8770328,19.606 87.3810328,19.606 Z M59.9130328,19.606 C60.4170328,19.606 60.8100328,19.762 61.0920328,20.074 C61.3740328,20.386 61.5270328,20.752 61.5510328,21.172 L58.1850328,21.172 C58.2810328,20.692 58.4670328,20.311 58.7430328,20.029 C59.0190328,19.747 59.4090328,19.606 59.9130328,19.606 Z M126.477033,19.606 C126.981033,19.606 127.374033,19.762 127.656033,20.074 C127.938033,20.386 128.091033,20.752 128.115033,21.172 L124.749033,21.172 C124.845033,20.692 125.031033,20.311 125.307033,20.029 C125.583033,19.747 125.973033,19.606 126.477033,19.606 Z" fill="#FFC13A"></path>
                <circle id="Oval" fill="#FF423A" cx="21" cy="20.5" r="8"></circle>
            </g>
        </g>
    </g>
</svg>