<?xml version="1.0" encoding="UTF-8"?>
<svg width="315px" height="41px" viewBox="0 0 315 41" version="1.1" xmlns="http://www.w3.org/2000/svg" xmlns:xlink="http://www.w3.org/1999/xlink">
    <title>live-button</title>
    <g id="website" stroke="none" stroke-width="1" fill="none" fill-rule="evenodd">
        <g id="web" transform="translate(-31, -421)">
            <g id="live-button" transform="translate(31.6471, 421)">
                <path d="M304.487856,0 L314,11.3259536 L305.358606,41 L0,41 L0,0 L304.487856,0 Z M288.055157,11.4320425 C287.87163,11.6155691 287.700072,11.7871266 287.540484,11.946715 L286.618861,12.8683379 C286.549706,12.9374928 286.485871,13.0013282 286.427355,13.0598439 L286.199942,13.2872573 C286.157385,13.3298142 286.120148,13.3670515 286.08823,13.3989692 L285.9446,13.5425987 L290.923348,18.4672299 C281.060711,18.5316151 275.598327,18.5672746 274.536196,18.5742083 L274.442017,18.5748232 C274.428937,18.5749086 274.417165,18.5749854 274.4067,18.5750537 L274.343914,18.5754636 L274.343914,21.6060059 L290.815115,21.6060059 L285.582998,26.5 C287.231104,28.0717738 288.055157,28.8576606 288.055157,28.8576606 C288.055157,28.8576606 290.093131,26.7985935 292.203891,24.6659882 L292.673348,24.1916724 C294.784108,22.0590672 296.822082,20 296.822082,20 L288.055157,11.4320425 Z M62.5770328,17.41 C61.9050328,17.41 61.3020328,17.53 60.7680328,17.77 C60.2340328,18.01 59.7750328,18.337 59.3910328,18.751 C59.0070328,19.165 58.7130328,19.657 58.5090328,20.227 C58.3050328,20.797 58.2030328,21.412 58.2030328,22.072 C58.2030328,22.732 58.3170328,23.347 58.5450328,23.917 C58.7730328,24.487 59.0880328,24.979 59.4900328,25.393 C59.8920328,25.807 60.3720328,26.131 60.9300328,26.365 C61.4880328,26.599 62.1030328,26.716 62.7750328,26.716 C63.4950328,26.716 64.1820328,26.587 64.8360328,26.329 C65.4900328,26.071 66.0270328,25.702 66.4470328,25.222 L64.5750328,23.494 C64.3830328,23.806 64.1310328,24.055 63.8190328,24.241 C63.5070328,24.427 63.1590328,24.52 62.7750328,24.52 C62.2710328,24.52 61.8540328,24.379 61.5240328,24.097 C61.1940328,23.815 60.9690328,23.416 60.8490328,22.9 L66.7710328,22.9 C66.7830328,22.744 66.7950328,22.609 66.8070328,22.495 C66.8190328,22.381 66.8250328,22.276 66.8250328,22.18 L66.8250328,21.604 C66.8250328,21.028 66.7410328,20.506 66.5730328,20.038 C66.3690328,19.486 66.0780328,19.015 65.7000328,18.625 C65.3220328,18.235 64.8660328,17.935 64.3320328,17.725 C63.7980328,17.515 63.2130328,17.41 62.5770328,17.41 Z M84.0510328,17.41 C83.3790328,17.41 82.7760328,17.53 82.2420328,17.77 C81.7080328,18.01 81.2490328,18.337 80.8650328,18.751 C80.4810328,19.165 80.1870328,19.657 79.9830328,20.227 C79.7790328,20.797 79.6770328,21.412 79.6770328,22.072 C79.6770328,22.732 79.7910328,23.347 80.0190328,23.917 C80.2470328,24.487 80.5620328,24.979 80.9640328,25.393 C81.3660328,25.807 81.8460328,26.131 82.4040328,26.365 C82.9620328,26.599 83.5770328,26.716 84.2490328,26.716 C84.9690328,26.716 85.6560328,26.587 86.3100328,26.329 C86.9640328,26.071 87.5010328,25.702 87.9210328,25.222 L86.0490328,23.494 C85.8570328,23.806 85.6050328,24.055 85.2930328,24.241 C84.9810328,24.427 84.6330328,24.52 84.2490328,24.52 C83.7450328,24.52 83.3280328,24.379 82.9980328,24.097 C82.6680328,23.815 82.4430328,23.416 82.3230328,22.9 L88.2450328,22.9 C88.2570328,22.744 88.2690328,22.609 88.2810328,22.495 C88.2930328,22.381 88.2990328,22.276 88.2990328,22.18 L88.2990328,21.604 C88.2990328,21.028 88.2150328,20.506 88.0470328,20.038 C87.8430328,19.486 87.5520328,19.015 87.1740328,18.625 C86.7960328,18.235 86.3400328,17.935 85.8060328,17.725 C85.2720328,17.515 84.6870328,17.41 84.0510328,17.41 Z M135.171033,17.428 C134.499033,17.428 133.881033,17.542 133.317033,17.77 C132.753033,17.998 132.264033,18.319 131.850033,18.733 C131.436033,19.147 131.112033,19.639 130.878033,20.209 C130.644033,20.779 130.527033,21.4 130.527033,22.072 C130.527033,22.744 130.644033,23.365 130.878033,23.935 C131.112033,24.505 131.436033,24.997 131.850033,25.411 C132.264033,25.825 132.753033,26.146 133.317033,26.374 C133.881033,26.602 134.499033,26.716 135.171033,26.716 C135.843033,26.716 136.464033,26.602 137.034033,26.374 C137.604033,26.146 138.096033,25.825 138.510033,25.411 C138.924033,24.997 139.248033,24.505 139.482033,23.935 C139.716033,23.365 139.833033,22.744 139.833033,22.072 C139.833033,21.4 139.716033,20.779 139.482033,20.209 C139.248033,19.639 138.924033,19.147 138.510033,18.733 C138.096033,18.319 137.604033,17.998 137.034033,17.77 C136.464033,17.542 135.843033,17.428 135.171033,17.428 Z M47.2950328,14.224 L44.3430328,14.224 L49.6170328,26.5 L51.8490328,26.5 L57.1230328,14.224 L54.1710328,14.224 L52.3530328,18.562 C52.0410328,19.306 51.7590328,20.059 51.5070328,20.821 C51.2550328,21.583 51.0030328,22.342 50.7510328,23.098 L50.7150328,23.098 C50.4630328,22.342 50.2140328,21.583 49.9680328,20.821 C49.7220328,20.059 49.4430328,19.306 49.1310328,18.562 L47.2950328,14.224 Z M73.6830328,17.428 C73.1550328,17.428 72.6960328,17.554 72.3060328,17.806 C71.9160328,18.058 71.5950328,18.418 71.3430328,18.886 L71.3070328,18.886 L71.1990328,17.644 L69.0210328,17.644 L69.0210328,26.5 L71.5950328,26.5 L71.5950328,22.018 C71.5950328,21.262 71.7120328,20.731 71.9460328,20.425 C72.1800328,20.119 72.5070328,19.966 72.9270328,19.966 C73.1550328,19.966 73.4070328,20.005 73.6830328,20.083 C73.9590328,20.161 74.1990328,20.23 74.4030328,20.29 L74.9070328,17.608 C74.7390328,17.56 74.5440328,17.518 74.3220328,17.482 C74.1000328,17.446 73.8870328,17.428 73.6830328,17.428 Z M95.7870328,17.428 L95.7150328,17.428 C95.1990328,17.428 94.6890328,17.542 94.1850328,17.77 C93.6570328,18.01 93.2010328,18.358 92.8170328,18.814 L92.7810328,18.814 L92.6730328,17.644 L90.4950328,17.644 L90.4950328,26.5 L93.0690328,26.5 L93.0690328,22 C93.0690328,21.736 93.1110328,21.475 93.1950328,21.217 C93.2790328,20.959 93.3990328,20.725 93.5550328,20.515 C93.7110328,20.305 93.9030328,20.137 94.1310328,20.011 C94.3590328,19.885 94.6170328,19.822 94.9050328,19.822 C95.1330328,19.822 95.3460328,19.858 95.5440328,19.93 C95.7420328,20.002 95.9160328,20.119 96.0660328,20.281 C96.2160328,20.443 96.3360328,20.653 96.4260328,20.911 C96.5160328,21.169 96.5610328,21.49 96.5610328,21.874 L96.5610328,26.5 L99.1350328,26.5 L99.1350328,21.424 C99.1350328,20.74 99.0480328,20.146 98.8740328,19.642 C98.7000328,19.138 98.4600328,18.724 98.1540328,18.4 C97.8480328,18.076 97.4910328,17.833 97.0830328,17.671 C96.6750328,17.509 96.2430328,17.428 95.7870328,17.428 Z M107.127033,17.644 L104.265033,17.644 L108.027033,26.5 L110.187033,26.5 L113.949033,17.644 L111.087033,17.644 L110.097033,20.272 C110.025033,20.464 109.947033,20.695 109.863033,20.965 C109.779033,21.235 109.695033,21.523 109.611033,21.829 C109.527033,22.135 109.443033,22.444 109.359033,22.756 C109.275033,23.068 109.197033,23.356 109.125033,23.62 L109.089033,23.62 C109.017033,23.356 108.939033,23.068 108.855033,22.756 C108.771033,22.444 108.687033,22.135 108.603033,21.829 C108.519033,21.523 108.435033,21.235 108.351033,20.965 C108.267033,20.695 108.189033,20.464 108.117033,20.272 L107.127033,17.644 Z M118.143033,17.644 L115.569033,17.644 L115.569033,26.5 L118.143033,26.5 L118.143033,17.644 Z M122.625033,17.644 L119.763033,17.644 L123.525033,26.5 L125.685033,26.5 L129.447033,17.644 L126.585033,17.644 L125.595033,20.272 C125.523033,20.464 125.445033,20.695 125.361033,20.965 C125.277033,21.235 125.193033,21.523 125.109033,21.829 C125.025033,22.135 124.941033,22.444 124.857033,22.756 C124.773033,23.068 124.695033,23.356 124.623033,23.62 L124.587033,23.62 C124.515033,23.356 124.437033,23.068 124.353033,22.756 C124.269033,22.444 124.185033,22.135 124.101033,21.829 C124.017033,21.523 123.933033,21.235 123.849033,20.965 C123.765033,20.695 123.687033,20.464 123.615033,20.272 L122.625033,17.644 Z M135.171033,19.876 C135.783033,19.876 136.284033,20.077 136.674033,20.479 C137.064033,20.881 137.259033,21.412 137.259033,22.072 C137.259033,22.732 137.064033,23.266 136.674033,23.674 C136.284033,24.082 135.783033,24.286 135.171033,24.286 C134.559033,24.286 134.061033,24.082 133.677033,23.674 C133.293033,23.266 133.101033,22.732 133.101033,22.072 C133.101033,21.412 133.293033,20.881 133.677033,20.479 C134.061033,20.077 134.559033,19.876 135.171033,19.876 Z M62.5770328,19.606 C63.0810328,19.606 63.4740328,19.762 63.7560328,20.074 C64.0380328,20.386 64.1910328,20.752 64.2150328,21.172 L60.8490328,21.172 C60.9450328,20.692 61.1310328,20.311 61.4070328,20.029 C61.6830328,19.747 62.0730328,19.606 62.5770328,19.606 Z M84.0510328,19.606 C84.5550328,19.606 84.9480328,19.762 85.2300328,20.074 C85.5120328,20.386 85.6650328,20.752 85.6890328,21.172 L82.3230328,21.172 C82.4190328,20.692 82.6050328,20.311 82.8810328,20.029 C83.1570328,19.747 83.5470328,19.606 84.0510328,19.606 Z M116.865033,13.594 C116.433033,13.594 116.079033,13.732 115.803033,14.008 C115.527033,14.284 115.389033,14.614 115.389033,14.998 C115.389033,15.382 115.527033,15.709 115.803033,15.979 C116.079033,16.249 116.433033,16.384 116.865033,16.384 C117.297033,16.384 117.648033,16.249 117.918033,15.979 C118.188033,15.709 118.323033,15.382 118.323033,14.998 C118.323033,14.614 118.188033,14.284 117.918033,14.008 C117.648033,13.732 117.297033,13.594 116.865033,13.594 Z" fill="#FFC13A"></path>
                <circle id="Oval" fill="#FF423A" cx="21" cy="20.5" r="8"></circle>
            </g>
        </g>
    </g>
</svg>