<?xml version="1.0" encoding="UTF-8"?>
<svg width="315px" height="41px" viewBox="0 0 315 41" version="1.1" xmlns="http://www.w3.org/2000/svg" xmlns:xlink="http://www.w3.org/1999/xlink">
    <title>live-button</title>
    <g id="website" stroke="none" stroke-width="1" fill="none" fill-rule="evenodd">
        <g id="web" transform="translate(-31, -421)">
            <g id="live-button" transform="translate(31.6471, 421)">
                <path d="M304.487856,0 L314,11.3259536 L305.358606,41 L0,41 L0,0 L304.487856,0 Z M74.0070328,16.186 L72.5310328,17.644 C72.0630328,17.5 71.5230328,17.428 70.9110328,17.428 C70.2990328,17.428 69.7530328,17.503 69.2730328,17.653 C68.7930328,17.803 68.3820328,18.013 68.0400328,18.283 C67.6980328,18.553 67.4370328,18.874 67.2570328,19.246 C67.0770328,19.618 66.9870328,20.026 66.9870328,20.47 C66.9870328,21.31 67.2810328,21.994 67.8690328,22.522 L67.8690328,22.558 C67.5810328,22.75 67.3650328,22.984 67.2210328,23.26 C67.0770328,23.536 67.0050328,23.83 67.0050328,24.142 C67.0050328,24.394 67.0560328,24.634 67.1580328,24.862 C67.2600328,25.09 67.3950328,25.3 67.5630328,25.492 C67.1790328,25.696 66.8850328,25.942 66.6810328,26.23 C66.4770328,26.518 66.3750328,26.86 66.3750328,27.256 C66.3750328,28.084 66.7590328,28.762 67.5270328,29.29 C68.2950328,29.818 69.4230328,30.082 70.9110328,30.082 C71.6790328,30.082 72.3480328,30.01 72.9180328,29.866 C73.4880328,29.722 73.9620328,29.524 74.3400328,29.272 C74.7180328,29.02 74.9970328,28.72 75.1770328,28.372 C75.3570328,28.024 75.4470328,27.652 75.4470328,27.256 C75.4470328,25.612 73.9350328,24.7 70.9110328,24.52 C70.8390328,24.52 70.7430328,24.517 70.6230328,24.511 C70.5030328,24.505 70.3800328,24.499 70.2540328,24.493 C70.1280328,24.487 70.0140328,24.481 69.9120328,24.475 C69.8100328,24.469 69.7410328,24.466 69.7050328,24.466 C69.5130328,24.442 69.3690328,24.376 69.2730328,24.268 C69.1770328,24.16 69.1290328,24.034 69.1290328,23.89 C69.1290328,23.662 69.2430328,23.488 69.4710328,23.368 C69.9030328,23.476 70.3830328,23.53 70.9110328,23.53 C71.5110328,23.53 72.0540328,23.455 72.5400328,23.305 C73.0260328,23.155 73.4400328,22.945 73.7820328,22.675 C74.1240328,22.405 74.3850328,22.084 74.5650328,21.712 C74.7450328,21.34 74.8350328,20.926 74.8350328,20.47 C74.8350328,19.774 74.6190328,19.174 74.1870328,18.67 L75.3390328,17.554 L74.0070328,16.186 Z M288.055157,11.4320425 C287.87163,11.6155691 287.700072,11.7871266 287.540484,11.946715 L286.618861,12.8683379 C286.549706,12.9374928 286.485871,13.0013282 286.427355,13.0598439 L286.199942,13.2872573 C286.157385,13.3298142 286.120148,13.3670515 286.08823,13.3989692 L285.9446,13.5425987 L290.923348,18.4672299 C281.060711,18.5316151 275.598327,18.5672746 274.536196,18.5742083 L274.442017,18.5748232 C274.428937,18.5749086 274.417165,18.5749854 274.4067,18.5750537 L274.343914,18.5754636 L274.343914,21.6060059 L290.815115,21.6060059 L285.582998,26.5 C287.231104,28.0717738 288.055157,28.8576606 288.055157,28.8576606 C288.055157,28.8576606 290.093131,26.7985935 292.203891,24.6659882 L292.673348,24.1916724 C294.784108,22.0590672 296.822082,20 296.822082,20 L288.055157,11.4320425 Z M69.5610328,26.302 L70.9110328,26.374 C71.6310328,26.41 72.1410328,26.503 72.4410328,26.653 C72.7410328,26.803 72.8910328,27.016 72.8910328,27.292 C72.8910328,27.616 72.7410328,27.874 72.4410328,28.066 C72.1410328,28.258 71.6310328,28.354 70.9110328,28.354 C70.1910328,28.354 69.6780328,28.252 69.3720328,28.048 C69.0660328,27.844 68.9130328,27.58 68.9130328,27.256 C68.9130328,27.112 68.9460328,26.95 69.0120328,26.77 C69.0780328,26.59 69.2610328,26.434 69.5610328,26.302 Z M167.211033,17.41 C166.887033,17.41 166.554033,17.434 166.212033,17.482 C165.870033,17.53 165.531033,17.596 165.195033,17.68 C164.859033,17.764 164.535033,17.866 164.223033,17.986 C163.911033,18.106 163.623033,18.232 163.359033,18.364 L164.493033,20.38 C164.973033,20.068 165.444033,19.846 165.906033,19.714 C166.368033,19.582 166.815033,19.516 167.247033,19.516 C167.811033,19.516 168.219033,19.627 168.471033,19.849 C168.723033,20.071 168.849033,20.368 168.849033,20.74 L168.849033,20.956 C168.561033,20.908 168.261033,20.872 167.949033,20.848 C167.637033,20.824 167.319033,20.812 166.995033,20.812 C165.771033,20.812 164.814033,21.061 164.124033,21.559 C163.434033,22.057 163.089033,22.792 163.089033,23.764 C163.089033,24.148 163.161033,24.517 163.305033,24.871 C163.449033,25.225 163.665033,25.54 163.953033,25.816 C164.241033,26.092 164.598033,26.314 165.024033,26.482 C165.450033,26.65 165.945033,26.734 166.509033,26.734 C167.097033,26.734 167.610033,26.638 168.048033,26.446 C168.486033,26.254 168.849033,25.984 169.137033,25.636 L169.173033,25.636 L169.245033,26.5 L171.423033,26.5 L171.423033,21.244 C171.423033,20.656 171.339033,20.128 171.171033,19.66 C171.003033,19.192 170.745033,18.79 170.397033,18.454 C170.049033,18.118 169.611033,17.86 169.083033,17.68 C168.555033,17.5 167.931033,17.41 167.211033,17.41 Z M114.777033,17.41 C114.453033,17.41 114.120033,17.434 113.778033,17.482 C113.436033,17.53 113.097033,17.596 112.761033,17.68 C112.425033,17.764 112.101033,17.866 111.789033,17.986 C111.477033,18.106 111.189033,18.232 110.925033,18.364 L112.059033,20.38 C112.539033,20.068 113.010033,19.846 113.472033,19.714 C113.934033,19.582 114.381033,19.516 114.813033,19.516 C115.377033,19.516 115.785033,19.627 116.037033,19.849 C116.289033,20.071 116.415033,20.368 116.415033,20.74 L116.415033,20.956 C116.127033,20.908 115.827033,20.872 115.515033,20.848 C115.203033,20.824 114.885033,20.812 114.561033,20.812 C113.337033,20.812 112.380033,21.061 111.690033,21.559 C111.000033,22.057 110.655033,22.792 110.655033,23.764 C110.655033,24.148 110.727033,24.517 110.871033,24.871 C111.015033,25.225 111.231033,25.54 111.519033,25.816 C111.807033,26.092 112.164033,26.314 112.590033,26.482 C113.016033,26.65 113.511033,26.734 114.075033,26.734 C114.663033,26.734 115.176033,26.638 115.614033,26.446 C116.052033,26.254 116.415033,25.984 116.703033,25.636 L116.739033,25.636 L116.811033,26.5 L118.989033,26.5 L118.989033,21.244 C118.989033,20.656 118.905033,20.128 118.737033,19.66 C118.569033,19.192 118.311033,18.79 117.963033,18.454 C117.615033,18.118 117.177033,17.86 116.649033,17.68 C116.121033,17.5 115.497033,17.41 114.777033,17.41 Z M243.945033,13.99 C243.045033,13.99 242.205033,14.152 241.425033,14.476 C240.645033,14.8 239.970033,15.244 239.400033,15.808 C238.830033,16.372 238.383033,17.044 238.059033,17.824 C237.735033,18.604 237.573033,19.45 237.573033,20.362 C237.573033,21.274 237.735033,22.117 238.059033,22.891 C238.383033,23.665 238.830033,24.337 239.400033,24.907 C239.970033,25.477 240.645033,25.921 241.425033,26.239 C242.205033,26.557 243.045033,26.716 243.945033,26.716 C244.845033,26.716 245.682033,26.557 246.456033,26.239 C247.230033,25.921 247.902033,25.477 248.472033,24.907 C249.042033,24.337 249.489033,23.665 249.813033,22.891 C250.137033,22.117 250.299033,21.274 250.299033,20.362 C250.299033,19.45 250.137033,18.604 249.813033,17.824 C249.489033,17.044 249.042033,16.372 248.472033,15.808 C247.902033,15.244 247.230033,14.8 246.456033,14.476 C245.682033,14.152 244.845033,13.99 243.945033,13.99 Z M49.6890328,14.008 C48.9210328,14.008 48.2460328,14.107 47.6640328,14.305 C47.0820328,14.503 46.5990328,14.767 46.2150328,15.097 C45.8310328,15.427 45.5400328,15.811 45.3420328,16.249 C45.1440328,16.687 45.0450328,17.14 45.0450328,17.608 C45.0450328,18.628 45.3720328,19.444 46.0260328,20.056 C46.6800328,20.668 47.6790328,21.136 49.0230328,21.46 C49.5750328,21.592 50.0280328,21.721 50.3820328,21.847 C50.7360328,21.973 51.0120328,22.102 51.2100328,22.234 C51.4080328,22.366 51.5430328,22.504 51.6150328,22.648 C51.6870328,22.792 51.7230328,22.948 51.7230328,23.116 C51.7230328,23.464 51.5490328,23.737 51.2010328,23.935 C50.8530328,24.133 50.3670328,24.232 49.7430328,24.232 C49.0830328,24.232 48.4770328,24.13 47.9250328,23.926 C47.3730328,23.722 46.8750328,23.452 46.4310328,23.116 L44.8830328,25.258 C45.1710328,25.474 45.5040328,25.672 45.8820328,25.852 C46.2600328,26.032 46.6620328,26.185 47.0880328,26.311 C47.5140328,26.437 47.9520328,26.536 48.4020328,26.608 C48.8520328,26.68 49.2990328,26.716 49.7430328,26.716 C50.5830328,26.716 51.3000328,26.611 51.8940328,26.401 C52.4880328,26.191 52.9740328,25.915 53.3520328,25.573 C53.7300328,25.231 54.0060328,24.835 54.1800328,24.385 C54.3540328,23.935 54.4410328,23.47 54.4410328,22.99 C54.4410328,22.09 54.1170328,21.298 53.4690328,20.614 C52.8210328,19.93 51.7410328,19.402 50.2290328,19.03 C49.6890328,18.898 49.2570328,18.775 48.9330328,18.661 C48.6090328,18.547 48.3600328,18.43 48.1860328,18.31 C48.0120328,18.19 47.8980328,18.07 47.8440328,17.95 C47.7900328,17.83 47.7630328,17.698 47.7630328,17.554 C47.7630328,17.278 47.9160328,17.032 48.2220328,16.816 C48.5280328,16.6 49.0170328,16.492 49.6890328,16.492 C50.2650328,16.492 50.8260328,16.585 51.3720328,16.771 C51.9180328,16.957 52.4370328,17.212 52.9290328,17.536 L54.4770328,15.394 C53.8290328,14.962 53.0880328,14.623 52.2540328,14.377 C51.4200328,14.131 50.5650328,14.008 49.6890328,14.008 Z M60.4710328,17.41 C59.7990328,17.41 59.1960328,17.53 58.6620328,17.77 C58.1280328,18.01 57.6690328,18.337 57.2850328,18.751 C56.9010328,19.165 56.6070328,19.657 56.4030328,20.227 C56.1990328,20.797 56.0970328,21.412 56.0970328,22.072 C56.0970328,22.732 56.2110328,23.347 56.4390328,23.917 C56.6670328,24.487 56.9820328,24.979 57.3840328,25.393 C57.7860328,25.807 58.2660328,26.131 58.8240328,26.365 C59.3820328,26.599 59.9970328,26.716 60.6690328,26.716 C61.3890328,26.716 62.0760328,26.587 62.7300328,26.329 C63.3840328,26.071 63.9210328,25.702 64.3410328,25.222 L62.4690328,23.494 C62.2770328,23.806 62.0250328,24.055 61.7130328,24.241 C61.4010328,24.427 61.0530328,24.52 60.6690328,24.52 C60.1650328,24.52 59.7480328,24.379 59.4180328,24.097 C59.0880328,23.815 58.8630328,23.416 58.7430328,22.9 L64.6650328,22.9 C64.6770328,22.744 64.6890328,22.609 64.7010328,22.495 C64.7130328,22.381 64.7190328,22.276 64.7190328,22.18 L64.7190328,21.604 C64.7190328,21.028 64.6350328,20.506 64.4670328,20.038 C64.2630328,19.486 63.9720328,19.015 63.5940328,18.625 C63.2160328,18.235 62.7600328,17.935 62.2260328,17.725 C61.6920328,17.515 61.1070328,17.41 60.4710328,17.41 Z M79.8210328,17.644 L77.2470328,17.644 L77.2470328,22.72 C77.2470328,23.404 77.3340328,23.998 77.5080328,24.502 C77.6820328,25.006 77.9220328,25.42 78.2280328,25.744 C78.5340328,26.068 78.8880328,26.311 79.2900328,26.473 C79.6920328,26.635 80.1270328,26.716 80.5950328,26.716 L80.6670328,26.716 C81.1830328,26.716 81.6930328,26.602 82.1970328,26.374 C82.7250328,26.134 83.1810328,25.786 83.5650328,25.33 L83.6010328,25.33 L83.7090328,26.5 L85.8870328,26.5 L85.8870328,17.644 L83.3130328,17.644 L83.3130328,22.144 C83.3130328,22.408 83.2710328,22.669 83.1870328,22.927 C83.1030328,23.185 82.9830328,23.419 82.8270328,23.629 C82.6710328,23.839 82.4790328,24.007 82.2510328,24.133 C82.0230328,24.259 81.7650328,24.322 81.4770328,24.322 C81.0210328,24.322 80.6310328,24.172 80.3070328,23.872 C79.9830328,23.572 79.8210328,23.038 79.8210328,22.27 L79.8210328,17.644 Z M108.495033,13.45 L105.921033,13.45 L105.921033,18.364 L105.885033,18.364 C105.189033,17.74 104.337033,17.428 103.329033,17.428 C102.729033,17.428 102.180033,17.542 101.682033,17.77 C101.184033,17.998 100.749033,18.319 100.377033,18.733 C100.005033,19.147 99.7170328,19.639 99.5130328,20.209 C99.3090328,20.779 99.2070328,21.4 99.2070328,22.072 C99.2070328,22.744 99.3090328,23.365 99.5130328,23.935 C99.7170328,24.505 100.005033,24.997 100.377033,25.411 C100.749033,25.825 101.184033,26.146 101.682033,26.374 C102.180033,26.602 102.729033,26.716 103.329033,26.716 C103.905033,26.716 104.436033,26.608 104.922033,26.392 C105.408033,26.176 105.831033,25.87 106.191033,25.474 L106.227033,25.474 L106.317033,26.5 L108.495033,26.5 L108.495033,13.45 Z M146.889033,17.428 C146.217033,17.428 145.599033,17.542 145.035033,17.77 C144.471033,17.998 143.982033,18.319 143.568033,18.733 C143.154033,19.147 142.830033,19.639 142.596033,20.209 C142.362033,20.779 142.245033,21.4 142.245033,22.072 C142.245033,22.744 142.362033,23.365 142.596033,23.935 C142.830033,24.505 143.154033,24.997 143.568033,25.411 C143.982033,25.825 144.471033,26.146 145.035033,26.374 C145.599033,26.602 146.217033,26.716 146.889033,26.716 C147.621033,26.716 148.284033,26.584 148.878033,26.32 C149.472033,26.056 149.979033,25.69 150.399033,25.222 L148.545033,23.458 C148.353033,23.71 148.119033,23.908 147.843033,24.052 C147.567033,24.196 147.249033,24.268 146.889033,24.268 C146.277033,24.268 145.779033,24.067 145.395033,23.665 C145.011033,23.263 144.819033,22.732 144.819033,22.072 C144.819033,21.412 145.011033,20.878 145.395033,20.47 C145.779033,20.062 146.277033,19.858 146.889033,19.858 C147.237033,19.858 147.552033,19.93 147.834033,20.074 C148.116033,20.218 148.347033,20.416 148.527033,20.668 L150.363033,18.886 C149.943033,18.43 149.439033,18.073 148.851033,17.815 C148.263033,17.557 147.609033,17.428 146.889033,17.428 Z M136.341033,17.41 C135.669033,17.41 135.066033,17.53 134.532033,17.77 C133.998033,18.01 133.539033,18.337 133.155033,18.751 C132.771033,19.165 132.477033,19.657 132.273033,20.227 C132.069033,20.797 131.967033,21.412 131.967033,22.072 C131.967033,22.732 132.081033,23.347 132.309033,23.917 C132.537033,24.487 132.852033,24.979 133.254033,25.393 C133.656033,25.807 134.136033,26.131 134.694033,26.365 C135.252033,26.599 135.867033,26.716 136.539033,26.716 C137.259033,26.716 137.946033,26.587 138.600033,26.329 C139.254033,26.071 139.791033,25.702 140.211033,25.222 L138.339033,23.494 C138.147033,23.806 137.895033,24.055 137.583033,24.241 C137.271033,24.427 136.923033,24.52 136.539033,24.52 C136.035033,24.52 135.618033,24.379 135.288033,24.097 C134.958033,23.815 134.733033,23.416 134.613033,22.9 L140.535033,22.9 C140.547033,22.744 140.559033,22.609 140.571033,22.495 C140.583033,22.381 140.589033,22.276 140.589033,22.18 L140.589033,21.604 C140.589033,21.028 140.505033,20.506 140.337033,20.038 C140.133033,19.486 139.842033,19.015 139.464033,18.625 C139.086033,18.235 138.630033,17.935 138.096033,17.725 C137.562033,17.515 136.977033,17.41 136.341033,17.41 Z M226.611033,14.224 L223.659033,14.224 L228.933033,26.5 L231.165033,26.5 L236.439033,14.224 L233.487033,14.224 L231.669033,18.562 C231.357033,19.306 231.075033,20.059 230.823033,20.821 C230.571033,21.583 230.319033,22.342 230.067033,23.098 L230.031033,23.098 C229.779033,22.342 229.530033,21.583 229.284033,20.821 C229.038033,20.059 228.759033,19.306 228.447033,18.562 L226.611033,14.224 Z M221.949033,14.224 L219.285033,14.224 L219.285033,26.5 L221.949033,26.5 L221.949033,14.224 Z M207.747033,14.224 L204.795033,14.224 L210.069033,26.5 L212.301033,26.5 L217.575033,14.224 L214.623033,14.224 L212.805033,18.562 C212.493033,19.306 212.211033,20.059 211.959033,20.821 C211.707033,21.583 211.455033,22.342 211.203033,23.098 L211.167033,23.098 C210.915033,22.342 210.666033,21.583 210.420033,20.821 C210.174033,20.059 209.895033,19.306 209.583033,18.562 L207.747033,14.224 Z M191.079033,14.224 L188.865033,14.224 L188.865033,26.5 L191.529033,26.5 L191.529033,21.838 C191.529033,21.358 191.523033,20.881 191.511033,20.407 C191.499033,19.933 191.487033,19.456 191.475033,18.976 L191.511033,18.976 L197.163033,26.5 L199.395033,26.5 L199.395033,14.224 L196.731033,14.224 L196.731033,18.886 C196.731033,19.366 196.737033,19.843 196.749033,20.317 C196.761033,20.791 196.773033,21.268 196.785033,21.748 L196.749033,21.748 L191.079033,14.224 Z M186.453033,14.224 L177.903033,14.224 L177.903033,26.5 L186.615033,26.5 L186.615033,23.98 L180.567033,23.98 L180.567033,21.604 L185.949033,21.604 L185.949033,19.084 L180.567033,19.084 L180.567033,16.744 L186.453033,16.744 L186.453033,14.224 Z M93.8790328,17.428 L93.8070328,17.428 C93.2910328,17.428 92.7810328,17.542 92.2770328,17.77 C91.7490328,18.01 91.2930328,18.358 90.9090328,18.814 L90.8730328,18.814 L90.7650328,17.644 L88.5870328,17.644 L88.5870328,26.5 L91.1610328,26.5 L91.1610328,22 C91.1610328,21.736 91.2030328,21.475 91.2870328,21.217 C91.3710328,20.959 91.4910328,20.725 91.6470328,20.515 C91.8030328,20.305 91.9950328,20.137 92.2230328,20.011 C92.4510328,19.885 92.7090328,19.822 92.9970328,19.822 C93.2250328,19.822 93.4380328,19.858 93.6360328,19.93 C93.8340328,20.002 94.0080328,20.119 94.1580328,20.281 C94.3080328,20.443 94.4280328,20.653 94.5180328,20.911 C94.6080328,21.169 94.6530328,21.49 94.6530328,21.874 L94.6530328,26.5 L97.2270328,26.5 L97.2270328,21.424 C97.2270328,20.74 97.1400328,20.146 96.9660328,19.642 C96.7920328,19.138 96.5520328,18.724 96.2460328,18.4 C95.9400328,18.076 95.5830328,17.833 95.1750328,17.671 C94.7670328,17.509 94.3350328,17.428 93.8790328,17.428 Z M155.043033,13.45 L152.469033,13.45 L152.469033,26.5 L155.043033,26.5 L155.043033,22.018 C155.043033,21.754 155.085033,21.49 155.169033,21.226 C155.253033,20.962 155.373033,20.725 155.529033,20.515 C155.685033,20.305 155.877033,20.137 156.105033,20.011 C156.333033,19.885 156.591033,19.822 156.879033,19.822 C157.107033,19.822 157.320033,19.858 157.518033,19.93 C157.716033,20.002 157.890033,20.119 158.040033,20.281 C158.190033,20.443 158.310033,20.653 158.400033,20.911 C158.490033,21.169 158.535033,21.49 158.535033,21.874 L158.535033,26.5 L161.109033,26.5 L161.109033,21.424 C161.109033,20.74 161.022033,20.146 160.848033,19.642 C160.674033,19.138 160.434033,18.724 160.128033,18.4 C159.822033,18.076 159.465033,17.833 159.057033,17.671 C158.649033,17.509 158.217033,17.428 157.761033,17.428 L157.671033,17.428 C157.239033,17.428 156.801033,17.512 156.357033,17.68 C155.889033,17.872 155.463033,18.148 155.079033,18.508 L155.043033,18.508 L155.043033,13.45 Z M128.925033,13.234 C127.905033,13.234 127.140033,13.543 126.630033,14.161 C126.120033,14.779 125.865033,15.676 125.865033,16.852 L125.865033,17.644 L124.569033,17.644 L124.569033,20.02 L125.865033,20.02 L125.865033,26.5 L128.439033,26.5 L128.439033,20.02 L130.797033,20.02 L130.797033,17.644 L128.439033,17.644 L128.439033,16.834 C128.439033,16.462 128.496033,16.171 128.610033,15.961 C128.724033,15.751 128.931033,15.646 129.231033,15.646 C129.435033,15.646 129.651033,15.673 129.879033,15.727 C130.107033,15.781 130.317033,15.838 130.509033,15.898 L130.977033,13.468 C130.665033,13.408 130.323033,13.354 129.951033,13.306 C129.579033,13.258 129.237033,13.234 128.925033,13.234 Z M114.867033,22.702 C115.155033,22.702 115.431033,22.717 115.695033,22.747 C115.959033,22.777 116.199033,22.816 116.415033,22.864 L116.415033,22.918 C116.415033,23.23 116.361033,23.506 116.253033,23.746 C116.145033,23.986 116.004033,24.187 115.830033,24.349 C115.656033,24.511 115.455033,24.631 115.227033,24.709 C114.999033,24.787 114.765033,24.826 114.525033,24.826 C114.117033,24.826 113.799033,24.727 113.571033,24.529 C113.343033,24.331 113.229033,24.076 113.229033,23.764 C113.229033,23.056 113.775033,22.702 114.867033,22.702 Z M167.301033,22.702 C167.589033,22.702 167.865033,22.717 168.129033,22.747 C168.393033,22.777 168.633033,22.816 168.849033,22.864 L168.849033,22.918 C168.849033,23.23 168.795033,23.506 168.687033,23.746 C168.579033,23.986 168.438033,24.187 168.264033,24.349 C168.090033,24.511 167.889033,24.631 167.661033,24.709 C167.433033,24.787 167.199033,24.826 166.959033,24.826 C166.551033,24.826 166.233033,24.727 166.005033,24.529 C165.777033,24.331 165.663033,24.076 165.663033,23.764 C165.663033,23.056 166.209033,22.702 167.301033,22.702 Z M103.851033,19.858 C104.463033,19.858 104.964033,20.062 105.354033,20.47 C105.744033,20.878 105.939033,21.412 105.939033,22.072 C105.939033,22.732 105.744033,23.263 105.354033,23.665 C104.964033,24.067 104.463033,24.268 103.851033,24.268 C103.239033,24.268 102.741033,24.067 102.357033,23.665 C101.973033,23.263 101.781033,22.732 101.781033,22.072 C101.781033,21.412 101.973033,20.878 102.357033,20.47 C102.741033,20.062 103.239033,19.858 103.851033,19.858 Z M243.945033,16.51 C244.473033,16.51 244.962033,16.606 245.412033,16.798 C245.862033,16.99 246.252033,17.257 246.582033,17.599 C246.912033,17.941 247.170033,18.346 247.356033,18.814 C247.542033,19.282 247.635033,19.798 247.635033,20.362 C247.635033,20.926 247.542033,21.442 247.356033,21.91 C247.170033,22.378 246.912033,22.783 246.582033,23.125 C246.252033,23.467 245.862033,23.731 245.412033,23.917 C244.962033,24.103 244.473033,24.196 243.945033,24.196 C243.405033,24.196 242.910033,24.103 242.460033,23.917 C242.010033,23.731 241.620033,23.467 241.290033,23.125 C240.960033,22.783 240.702033,22.378 240.516033,21.91 C240.330033,21.442 240.237033,20.926 240.237033,20.362 C240.237033,19.798 240.330033,19.282 240.516033,18.814 C240.702033,18.346 240.960033,17.941 241.290033,17.599 C241.620033,17.257 242.010033,16.99 242.460033,16.798 C242.910033,16.606 243.405033,16.51 243.945033,16.51 Z M70.9110328,19.318 C71.3190328,19.318 71.6460328,19.426 71.8920328,19.642 C72.1380328,19.858 72.2610328,20.134 72.2610328,20.47 C72.2610328,20.818 72.1380328,21.1 71.8920328,21.316 C71.6460328,21.532 71.3190328,21.64 70.9110328,21.64 C70.5030328,21.64 70.1760328,21.532 69.9300328,21.316 C69.6840328,21.1 69.5610328,20.818 69.5610328,20.47 C69.5610328,20.134 69.6840328,19.858 69.9300328,19.642 C70.1760328,19.426 70.5030328,19.318 70.9110328,19.318 Z M136.341033,19.606 C136.845033,19.606 137.238033,19.762 137.520033,20.074 C137.802033,20.386 137.955033,20.752 137.979033,21.172 L134.613033,21.172 C134.709033,20.692 134.895033,20.311 135.171033,20.029 C135.447033,19.747 135.837033,19.606 136.341033,19.606 Z M60.4710328,19.606 C60.9750328,19.606 61.3680328,19.762 61.6500328,20.074 C61.9320328,20.386 62.0850328,20.752 62.1090328,21.172 L58.7430328,21.172 C58.8390328,20.692 59.0250328,20.311 59.3010328,20.029 C59.5770328,19.747 59.9670328,19.606 60.4710328,19.606 Z" fill="#FFC13A"></path>
                <circle id="Oval" fill="#FF423A" cx="21" cy="20.5" r="8"></circle>
            </g>
        </g>
    </g>
</svg>