<?xml version="1.0" encoding="UTF-8"?>
<svg width="83px" height="68px" viewBox="0 0 83 68" version="1.1" xmlns="http://www.w3.org/2000/svg" xmlns:xlink="http://www.w3.org/1999/xlink">
    <title>Logo</title>
    <g id="website" stroke="none" stroke-width="1" fill="none" fill-rule="evenodd">
        <path d="M56.5557118,60.241103 L56.8207653,61.8747561 C56.6805443,61.8818527 56.5310692,61.9087949 56.3723399,61.9555827 C56.2136105,62.0023705 56.0586346,62.0670158 55.907412,62.1495187 C55.7561894,62.2320215 55.6161066,62.3338127 55.4871635,62.4548923 C55.3582204,62.575972 55.2551899,62.7192019 55.1780719,62.884582 C55.1194622,63.0102709 55.0773905,63.1436716 55.0518568,63.2847842 C55.0263231,63.4258967 55.0227257,63.5631444 55.0410646,63.6965273 C55.0594035,63.8299102 55.1011096,63.9520419 55.1661828,64.0629224 C55.2312561,64.1738029 55.3233296,64.2570057 55.4424033,64.3125306 C55.5482466,64.3618862 55.6561716,64.3679175 55.7661784,64.3306245 C55.8761852,64.2933315 55.9878369,64.2266044 56.1011335,64.1304433 C56.2144301,64.0342821 56.3320195,63.9159618 56.4539016,63.7754823 C56.5757837,63.6350028 56.7030641,63.4829467 56.8357427,63.319314 C57.0442377,63.0621768 57.2689364,62.8005152 57.5098387,62.5343289 C57.7507411,62.2681427 58.0156882,62.0453833 58.3046801,61.8660507 C58.593672,61.686718 58.9098022,61.5744023 59.2530709,61.5291034 C59.5963395,61.4838045 59.9730452,61.5567814 60.3831879,61.7480341 C60.7801003,61.9331173 61.0747265,62.1691608 61.2670667,62.4561646 C61.4594069,62.7431683 61.5733764,63.0600698 61.6089754,63.4068689 C61.6445744,63.753668 61.6177836,64.1176826 61.528603,64.4989129 C61.4394224,64.8801431 61.3100023,65.2526764 61.1403426,65.6165127 C60.8442094,66.2515725 60.4370218,66.7361897 59.91878,67.0703645 C59.4005382,67.4045393 58.8422441,67.6173535 58.2438977,67.7088072 L58.0806934,66.0380841 C58.2403143,66.0239265 58.4034567,65.9892636 58.5701207,65.9340953 C58.7367847,65.878927 58.8956166,65.8060127 59.0466163,65.7153523 C59.197616,65.624692 59.3374759,65.5147432 59.4661961,65.385506 C59.5949163,65.2562687 59.696293,65.1122677 59.7703264,64.9535027 C59.8320208,64.8211986 59.8916156,64.6718082 59.9491109,64.5053315 C60.0066062,64.3388547 60.0429364,64.174589 60.0581015,64.0125342 C60.0732666,63.8504795 60.0594434,63.703095 60.0166318,63.5703808 C59.9738202,63.4376665 59.8796472,63.3373774 59.7341126,63.2695136 C59.6084237,63.2109039 59.4848433,63.1995858 59.3633713,63.2355593 C59.2418993,63.2715328 59.1172401,63.340248 58.9893936,63.4417049 C58.8615472,63.5431618 58.732827,63.672399 58.6032331,63.8294165 C58.4736391,63.986434 58.3378758,64.1566819 58.195943,64.3401602 C58.0099326,64.5836212 57.8028685,64.8333719 57.5747508,65.0894125 C57.346633,65.345453 57.0953532,65.5604917 56.8209112,65.7345286 C56.5464692,65.9085655 56.2441177,66.0172394 55.9138566,66.0605501 C55.5835955,66.1038609 55.2200088,66.0329747 54.8230964,65.8478914 C54.4592601,65.6782317 54.1707008,65.4550843 53.9574184,65.1784492 C53.744136,64.901814 53.6004069,64.6012366 53.5262311,64.276717 C53.4520553,63.9521974 53.4379558,63.6154236 53.4839325,63.2663957 C53.5299091,62.9173678 53.6269308,62.5840889 53.7749974,62.266559 C54.0464529,61.6844209 54.4299478,61.2290238 54.9254821,60.9003676 C55.4210165,60.5717115 55.9644264,60.3519566 56.5557118,60.241103 Z M60.3058035,5.68434189e-14 L73.2349499,13.0965217 L47.360954,67.3920732 L9.16815798,67.3920732 L0,24.3828814 L60.3058035,5.68434189e-14 Z M18.6101528,50.4673078 L12.2551033,50.4673078 L12.2551033,63.8419871 L18.6101528,63.8419871 C20.0500768,63.8419871 21.2857809,63.6135376 22.317265,63.1566386 C23.348749,62.6997396 24.1448609,61.9867003 24.7056006,61.0175207 C25.2663402,60.048341 25.5467101,58.7884074 25.5467101,57.23772 C25.5467101,55.60396 25.2628789,54.2921061 24.6952165,53.3021583 C24.1275541,52.3122105 23.3245196,51.5922485 22.2861128,51.1422722 C21.247706,50.6922959 20.022386,50.4673078 18.6101528,50.4673078 Z M59.4881638,50.5327663 L60.8773571,51.1805578 L59.5401304,54.0482495 L60.9293237,54.6960409 L61.9334004,52.5427914 L63.3225936,53.1905828 L62.3185169,55.3438323 L63.7077101,55.9916238 L65.0726992,53.0643952 L66.4618924,53.7121866 L64.4120952,58.1079909 L57.4661291,54.8690337 L59.4881638,50.5327663 Z M38.0104233,43.5346411 L27.3148335,43.5346411 L27.3148335,56.9093204 L38.0104233,56.9093204 L38.0104233,53.2956648 L33.6893025,53.2956648 L33.6893025,52.0911129 L37.2212341,52.0911129 L37.2212341,48.3528485 L33.6893025,48.3528485 L33.6893025,47.1482967 L38.0104233,47.1482967 L38.0104233,43.5346411 Z M47.6498337,37.0913498 L40.1317686,37.0913498 L40.1317686,50.4660291 L45.1576574,50.4660291 L45.1576574,47.0600548 L45.7041474,47.0600548 L47.2552391,50.4660291 L52.4888093,50.4660291 C51.864781,49.0654527 51.3881052,47.9956006 51.0587818,47.2564729 L50.9266648,46.9599523 C50.8035693,46.6836801 50.7075386,46.4681532 50.6385727,46.3133717 L50.5786283,46.1788385 C50.5446797,46.1026487 50.5227599,46.0534568 50.5128689,46.0312628 C51.0940649,45.6074672 51.5969506,45.085059 52.0215262,44.4640379 C52.4853479,43.7856121 52.7172588,42.996423 52.7172588,42.0964704 C52.7172588,41.1411362 52.5338069,40.2861813 52.1669032,39.5316057 C51.7999995,38.7770301 51.2427212,38.1816769 50.4950683,37.745546 C49.7474154,37.3094152 48.7990039,37.0913498 47.6498337,37.0913498 Z M65.4967804,41.4555186 C65.8480016,41.4622498 66.1922999,41.5442758 66.5296754,41.7015966 C66.9861246,41.9144424 67.3472461,42.2237747 67.61304,42.6295937 C67.8788339,43.0354126 68.026352,43.4746686 68.0555942,43.9473617 L71.2270154,43.4933473 L70.4219032,45.219916 L67.621531,45.6295052 L67.112552,46.7210142 L69.2558786,47.7204638 L68.5618164,49.2088851 L61.6158503,45.969928 L63.0086019,42.9831625 C63.1597532,42.6590175 63.3660372,42.3807152 63.6274539,42.1482559 C63.8888705,41.9157965 64.1779738,41.7405427 64.4947638,41.6224943 C64.8115538,41.504446 65.1455593,41.4487874 65.4967804,41.4555186 Z M65.3742559,43.1560903 C65.2271969,43.1519446 65.086539,43.1729314 64.9522824,43.2190505 C64.8180258,43.2651697 64.695903,43.3370811 64.585914,43.4347846 C64.475925,43.5324882 64.3885409,43.6507996 64.3237618,43.7897189 L63.6991058,45.1292981 L65.7233588,46.0732228 L66.3480148,44.7336436 C66.4127939,44.5947243 66.4472563,44.4517351 66.451402,44.304676 C66.4555477,44.1576169 66.432136,44.0178417 66.3811669,43.8853503 C66.3301977,43.7528589 66.2558614,43.6316188 66.1581578,43.5216298 C66.0604543,43.4116408 65.9421429,43.3242567 65.8032235,43.2594776 C65.6643042,43.1946984 65.521315,43.160236 65.3742559,43.1560903 Z M16.6064269,29.5707239 L8.67299908,29.5707239 L8.67299908,42.9454032 L16.6894994,42.9454032 C18.1709598,42.9454032 19.3235913,42.5854222 20.147394,41.8654601 C20.9711967,41.1454981 21.3830981,40.1555503 21.3830981,38.8956167 C21.3830981,38.120273 21.2307984,37.5353038 20.9261991,37.1407093 C20.6215997,36.7461147 20.206237,36.4242086 19.6801109,36.174991 C20.0539374,35.8980825 20.3550753,35.5242561 20.5835248,35.0535116 C20.8119743,34.5827672 20.9261991,34.0151049 20.9261991,33.3505245 C20.9261991,32.1321272 20.5489113,31.1975611 19.7943357,30.5468262 C19.0397601,29.8960913 17.9771238,29.5707239 16.6064269,29.5707239 Z M67.0935439,34.2229761 L74.03951,37.4619333 L73.3454477,38.9503546 L66.3994817,35.7113974 L67.0935439,34.2229761 Z M29.9898186,22.3415721 C28.4806674,22.3415721 27.193043,22.5665603 26.1269454,23.0165365 C25.0608478,23.4665128 24.2439678,24.1933976 23.6763054,25.1971908 C23.108643,26.200984 22.8248118,27.5474515 22.8248118,29.2365932 C22.8248118,30.9118894 23.108643,32.2548955 23.6763054,33.2656115 C24.2439678,34.2763274 25.0608478,35.0066735 26.1269454,35.4566498 C27.193043,35.906626 28.4806674,36.1316142 29.9898186,36.1316142 C31.4989698,36.1316142 32.7865942,35.906626 33.8526918,35.4566498 C34.9187894,35.0066735 35.7356694,34.2763274 36.3033318,33.2656115 C36.8709942,32.2548955 37.1548254,30.9118894 37.1548254,29.2365932 C37.1548254,27.5474515 36.8709942,26.200984 36.3033318,25.1971908 C35.7356694,24.1933976 34.9187894,23.4665128 33.8526918,23.0165365 C32.7865942,22.5665603 31.4989698,22.3415721 29.9898186,22.3415721 Z M71.354315,25.0857229 L72.7435083,25.7335144 L71.4062817,28.6012061 L72.7954749,29.2489975 L73.7995516,27.095748 L75.1887448,27.7435395 L74.1846681,29.896789 L75.5738613,30.5445804 L76.9388504,27.6173518 L78.3280436,28.2651433 L76.2782464,32.6609475 L69.3322804,29.4219903 L71.354315,25.0857229 Z M43.7077531,15.3137772 L38.6818643,15.3137772 L38.6818643,23.4133501 C38.6818643,24.6040565 38.9760795,25.6078497 39.56451,26.4247297 C40.1529405,27.2416097 40.9525137,27.8577311 41.9632297,28.2730938 C42.9739456,28.6884565 44.1092704,28.8961378 45.3692039,28.8961378 C46.6291375,28.8961378 47.7644622,28.6884565 48.7751781,28.2730938 C49.7858941,27.8577311 50.5854673,27.2416097 51.1738978,26.4247297 C51.7623283,25.6078497 52.0565436,24.6040565 52.0565436,23.4133501 L52.0565436,15.3137772 L47.0306548,15.3137772 L47.0306548,22.7695378 C47.0306548,24.015626 46.4768378,24.6386701 45.3692039,24.6386701 C44.26157,24.6386701 43.7077531,24.015626 43.7077531,22.7695378 L43.7077531,15.3137772 Z M77.2256572,15.914262 L77.4907108,17.547915 C77.3504898,17.5550116 77.2010146,17.5819538 77.0422853,17.6287416 C76.883556,17.6755295 76.72858,17.7401748 76.5773575,17.8226776 C76.4261349,17.9051804 76.286052,18.0069716 76.157109,18.1280513 C76.0281659,18.2491309 75.9251353,18.3923608 75.8480173,18.557741 C75.7894076,18.6834299 75.7473359,18.8168306 75.7218022,18.9579431 C75.6962686,19.0990556 75.6926712,19.2363033 75.7110101,19.3696862 C75.7293489,19.5030691 75.771055,19.6252008 75.8361283,19.7360814 C75.9012016,19.8469619 75.9932751,19.9301646 76.1123488,19.9856896 C76.218192,20.0350451 76.3261171,20.0410764 76.4361239,20.0037834 C76.5461307,19.9664905 76.6577824,19.8997634 76.771079,19.8036022 C76.8843756,19.707441 77.0019649,19.5891207 77.123847,19.4486412 C77.2457291,19.3081617 77.3730095,19.1561056 77.5056881,18.9924729 C77.7141831,18.7353358 77.9388818,18.4736741 78.1797842,18.2074879 C78.4206866,17.9413017 78.6856337,17.7185423 78.9746256,17.5392096 C79.2636174,17.359877 79.5797477,17.2475612 79.9230163,17.2022623 C80.2662849,17.1569634 80.6429906,17.2299403 81.0531334,17.421193 C81.4500457,17.6062763 81.744672,17.8423198 81.9370121,18.1293235 C82.1293523,18.4163273 82.2433219,18.7332287 82.2789209,19.0800278 C82.3145198,19.4268269 82.287729,19.7908416 82.1985484,20.1720718 C82.1093678,20.5533021 81.9799477,20.9258353 81.810288,21.2896717 C81.5141548,21.9247314 81.1069673,22.4093487 80.5887255,22.7435234 C80.0704836,23.0776982 79.5121895,23.2905124 78.9138432,23.3819661 L78.7506389,21.711243 C78.9102597,21.6970855 79.0734021,21.6624225 79.2400661,21.6072543 C79.4067301,21.552086 79.565562,21.4791717 79.7165617,21.3885113 C79.8675614,21.2978509 80.0074213,21.1879021 80.1361415,21.0586649 C80.2648617,20.9294277 80.3662385,20.7854266 80.4402718,20.6266617 C80.5019662,20.4943576 80.5615611,20.3449671 80.6190564,20.1784904 C80.6765517,20.0120137 80.7128819,19.8477479 80.728047,19.6856932 C80.7432121,19.5236385 80.7293888,19.376254 80.6865772,19.2435397 C80.6437657,19.1108255 80.5495926,19.0105364 80.4040581,18.9426725 C80.2783692,18.8840628 80.1547887,18.8727447 80.0333168,18.9087182 C79.9118448,18.9446917 79.7871856,19.0134069 79.6593391,19.1148638 C79.5314926,19.2163207 79.4027724,19.3455579 79.2731785,19.5025754 C79.1435846,19.6595929 79.0078212,19.8298409 78.8658884,20.0133192 C78.679878,20.2567801 78.4728139,20.5065309 78.2446962,20.7625714 C78.0165785,21.0186119 77.7652986,21.2336506 77.4908567,21.4076876 C77.2164147,21.5817245 76.9140631,21.6903983 76.583802,21.7337091 C76.253541,21.7770199 75.8899542,21.7061336 75.4930419,21.5210504 C75.1292056,21.3513907 74.8406462,21.1282433 74.6273638,20.8516081 C74.4140815,20.5749729 74.2703524,20.2743955 74.1961766,19.9498759 C74.1220008,19.6253563 74.1079012,19.2885826 74.1538779,18.9395547 C74.1998546,18.5905267 74.2968762,18.2572478 74.4449428,17.939718 C74.7163983,17.3575798 75.0998932,16.9021827 75.5954276,16.5735266 C76.0909619,16.2448704 76.6343718,16.0251155 77.2256572,15.914262 Z M59.6207532,6.58989109 L54.5948644,6.58989109 L54.5948644,19.9645704 L65.0827729,19.9645704 L65.0827729,16.1432335 L59.6207532,16.1432335 L59.6207532,6.58989109 Z" id="Logo" fill="#FFFFFF"></path>
    </g>
</svg>