<?xml version="1.0" encoding="UTF-8"?>
<svg width="315px" height="41px" viewBox="0 0 315 41" version="1.1" xmlns="http://www.w3.org/2000/svg" xmlns:xlink="http://www.w3.org/1999/xlink">
    <title>sign-up-button</title>
    <g id="website" stroke="none" stroke-width="1" fill="none" fill-rule="evenodd">
        <path d="M305.134933,-5.68434189e-14 L314.647078,11.3259536 L306.005683,41 L0.647077581,41 L0.647077581,-5.68434189e-14 L305.134933,-5.68434189e-14 Z M122.51411,17.41 C121.91411,17.41 121.36511,17.527 120.86711,17.761 C120.36911,17.995 119.93411,18.319 119.56211,18.733 C119.19011,19.147 118.90211,19.639 118.69811,20.209 C118.49411,20.779 118.39211,21.4 118.39211,22.072 C118.39211,22.744 118.49411,23.365 118.69811,23.935 C118.90211,24.505 119.19011,24.997 119.56211,25.411 C119.93411,25.825 120.36911,26.146 120.86711,26.374 C121.36511,26.602 121.91411,26.716 122.51411,26.716 C123.52211,26.716 124.37411,26.404 125.07011,25.78 L125.10611,25.78 L125.10611,30.1 L127.68011,30.1 L127.68011,17.644 L125.50211,17.644 L125.41211,18.67 L125.37611,18.67 C125.01611,18.274 124.59311,17.965 124.10711,17.743 C123.62111,17.521 123.09011,17.41 122.51411,17.41 Z M288.702234,11.4320425 C288.518707,11.6155691 288.34715,11.7871266 288.187562,11.946715 L287.265939,12.8683379 C287.196784,12.9374928 287.132948,13.0013282 287.074433,13.0598439 L286.847019,13.2872573 C286.804462,13.3298142 286.767225,13.3670515 286.735307,13.3989692 L286.591678,13.5425987 L291.570426,18.4672299 C281.707788,18.5316151 276.245404,18.5672746 275.183274,18.5742083 L275.089095,18.5748232 C275.076014,18.5749086 275.064242,18.5749854 275.053778,18.5750537 L274.990992,18.5754636 L274.990992,21.6060059 L291.462192,21.6060059 L286.230076,26.5 C287.878181,28.0717738 288.702234,28.8576606 288.702234,28.8576606 C288.702234,28.8576606 290.740209,26.7985935 292.850969,24.6659882 L293.320426,24.1916724 C295.431185,22.0590672 297.46916,20 297.46916,20 L288.702234,11.4320425 Z M112.02011,17.41 C111.69611,17.41 111.36311,17.434 111.02111,17.482 C110.67911,17.53 110.34011,17.596 110.00411,17.68 C109.66811,17.764 109.34411,17.866 109.03211,17.986 C108.72011,18.106 108.43211,18.232 108.16811,18.364 L109.30211,20.38 C109.78211,20.068 110.25311,19.846 110.71511,19.714 C111.17711,19.582 111.62411,19.516 112.05611,19.516 C112.62011,19.516 113.02811,19.627 113.28011,19.849 C113.53211,20.071 113.65811,20.368 113.65811,20.74 L113.65811,20.956 C113.37011,20.908 113.07011,20.872 112.75811,20.848 C112.44611,20.824 112.12811,20.812 111.80411,20.812 C110.58011,20.812 109.62311,21.061 108.93311,21.559 C108.24311,22.057 107.89811,22.792 107.89811,23.764 C107.89811,24.148 107.97011,24.517 108.11411,24.871 C108.25811,25.225 108.47411,25.54 108.76211,25.816 C109.05011,26.092 109.40711,26.314 109.83311,26.482 C110.25911,26.65 110.75411,26.734 111.31811,26.734 C111.90611,26.734 112.41911,26.638 112.85711,26.446 C113.29511,26.254 113.65811,25.984 113.94611,25.636 L113.98211,25.636 L114.05411,26.5 L116.23211,26.5 L116.23211,21.244 C116.23211,20.656 116.14811,20.128 115.98011,19.66 C115.81211,19.192 115.55411,18.79 115.20611,18.454 C114.85811,18.118 114.42011,17.86 113.89211,17.68 C113.36411,17.5 112.74011,17.41 112.02011,17.41 Z M67.8841104,13.45 L65.3101104,13.45 L65.3101104,26.5 L67.4881104,26.5 L67.5781104,25.474 L67.6141104,25.474 C67.9741104,25.87 68.3971104,26.176 68.8831104,26.392 C69.3691104,26.608 69.9001104,26.716 70.4761104,26.716 C71.0641104,26.716 71.6101104,26.602 72.1141104,26.374 C72.6181104,26.146 73.0561104,25.825 73.4281104,25.411 C73.8001104,24.997 74.0881104,24.505 74.2921104,23.935 C74.4961104,23.365 74.5981104,22.744 74.5981104,22.072 C74.5981104,21.4 74.4961104,20.779 74.2921104,20.209 C74.0881104,19.639 73.8001104,19.147 73.4281104,18.733 C73.0561104,18.319 72.6181104,17.998 72.1141104,17.77 C71.6101104,17.542 71.0641104,17.428 70.4761104,17.428 C69.4681104,17.428 68.6161104,17.74 67.9201104,18.364 L67.8841104,18.364 L67.8841104,13.45 Z M46.9501104,17.428 C46.2781104,17.428 45.6601104,17.542 45.0961104,17.77 C44.5321104,17.998 44.0431104,18.319 43.6291104,18.733 C43.2151104,19.147 42.8911104,19.639 42.6571104,20.209 C42.4231104,20.779 42.3061104,21.4 42.3061104,22.072 C42.3061104,22.744 42.4231104,23.365 42.6571104,23.935 C42.8911104,24.505 43.2151104,24.997 43.6291104,25.411 C44.0431104,25.825 44.5321104,26.146 45.0961104,26.374 C45.6601104,26.602 46.2781104,26.716 46.9501104,26.716 C47.6821104,26.716 48.3451104,26.584 48.9391104,26.32 C49.5331104,26.056 50.0401104,25.69 50.4601104,25.222 L48.6061104,23.458 C48.4141104,23.71 48.1801104,23.908 47.9041104,24.052 C47.6281104,24.196 47.3101104,24.268 46.9501104,24.268 C46.3381104,24.268 45.8401104,24.067 45.4561104,23.665 C45.0721104,23.263 44.8801104,22.732 44.8801104,22.072 C44.8801104,21.412 45.0721104,20.878 45.4561104,20.47 C45.8401104,20.062 46.3381104,19.858 46.9501104,19.858 C47.2981104,19.858 47.6131104,19.93 47.8951104,20.074 C48.1771104,20.218 48.4081104,20.416 48.5881104,20.668 L50.4241104,18.886 C50.0041104,18.43 49.5001104,18.073 48.9121104,17.815 C48.3241104,17.557 47.6701104,17.428 46.9501104,17.428 Z M80.5921104,17.41 C79.9201104,17.41 79.3171104,17.53 78.7831104,17.77 C78.2491104,18.01 77.7901104,18.337 77.4061104,18.751 C77.0221104,19.165 76.7281104,19.657 76.5241104,20.227 C76.3201104,20.797 76.2181104,21.412 76.2181104,22.072 C76.2181104,22.732 76.3321104,23.347 76.5601104,23.917 C76.7881104,24.487 77.1031104,24.979 77.5051104,25.393 C77.9071104,25.807 78.3871104,26.131 78.9451104,26.365 C79.5031104,26.599 80.1181104,26.716 80.7901104,26.716 C81.5101104,26.716 82.1971104,26.587 82.8511104,26.329 C83.5051104,26.071 84.0421104,25.702 84.4621104,25.222 L82.5901104,23.494 C82.3981104,23.806 82.1461104,24.055 81.8341104,24.241 C81.5221104,24.427 81.1741104,24.52 80.7901104,24.52 C80.2861104,24.52 79.8691104,24.379 79.5391104,24.097 C79.2091104,23.815 78.9841104,23.416 78.8641104,22.9 L84.7861104,22.9 C84.7981104,22.744 84.8101104,22.609 84.8221104,22.495 C84.8341104,22.381 84.8401104,22.276 84.8401104,22.18 L84.8401104,21.604 C84.8401104,21.028 84.7561104,20.506 84.5881104,20.038 C84.3841104,19.486 84.0931104,19.015 83.7151104,18.625 C83.3371104,18.235 82.8811104,17.935 82.3471104,17.725 C81.8131104,17.515 81.2281104,17.41 80.5921104,17.41 Z M132.77411,17.644 L130.20011,17.644 L130.20011,22.72 C130.20011,23.404 130.28711,23.998 130.46111,24.502 C130.63511,25.006 130.87511,25.42 131.18111,25.744 C131.48711,26.068 131.84111,26.311 132.24311,26.473 C132.64511,26.635 133.08011,26.716 133.54811,26.716 L133.62011,26.716 C134.13611,26.716 134.64611,26.602 135.15011,26.374 C135.67811,26.134 136.13411,25.786 136.51811,25.33 L136.55411,25.33 L136.66211,26.5 L138.84011,26.5 L138.84011,17.644 L136.26611,17.644 L136.26611,22.144 C136.26611,22.408 136.22411,22.669 136.14011,22.927 C136.05611,23.185 135.93611,23.419 135.78011,23.629 C135.62411,23.839 135.43211,24.007 135.20411,24.133 C134.97611,24.259 134.71811,24.322 134.43011,24.322 C133.97411,24.322 133.58411,24.172 133.26011,23.872 C132.93611,23.572 132.77411,23.038 132.77411,22.27 L132.77411,17.644 Z M98.3041104,17.41 C97.6321104,17.41 97.0291104,17.53 96.4951104,17.77 C95.9611104,18.01 95.5021104,18.337 95.1181104,18.751 C94.7341104,19.165 94.4401104,19.657 94.2361104,20.227 C94.0321104,20.797 93.9301104,21.412 93.9301104,22.072 C93.9301104,22.732 94.0441104,23.347 94.2721104,23.917 C94.5001104,24.487 94.8151104,24.979 95.2171104,25.393 C95.6191104,25.807 96.0991104,26.131 96.6571104,26.365 C97.2151104,26.599 97.8301104,26.716 98.5021104,26.716 C99.2221104,26.716 99.9091104,26.587 100.56311,26.329 C101.21711,26.071 101.75411,25.702 102.17411,25.222 L100.30211,23.494 C100.11011,23.806 99.8581104,24.055 99.5461104,24.241 C99.2341104,24.427 98.8861104,24.52 98.5021104,24.52 C97.9981104,24.52 97.5811104,24.379 97.2511104,24.097 C96.9211104,23.815 96.6961104,23.416 96.5761104,22.9 L102.49811,22.9 C102.51011,22.744 102.52211,22.609 102.53411,22.495 C102.54611,22.381 102.55211,22.276 102.55211,22.18 L102.55211,21.604 C102.55211,21.028 102.46811,20.506 102.30011,20.038 C102.09611,19.486 101.80511,19.015 101.42711,18.625 C101.04911,18.235 100.59311,17.935 100.05911,17.725 C99.5251104,17.515 98.9401104,17.41 98.3041104,17.41 Z M36.9421104,17.428 C36.3781104,17.428 35.8741104,17.497 35.4301104,17.635 C34.9861104,17.773 34.6141104,17.965 34.3141104,18.211 C34.0141104,18.457 33.7861104,18.742 33.6301104,19.066 C33.4741104,19.39 33.3961104,19.738 33.3961104,20.11 C33.3961104,20.878 33.6571104,21.508 34.1791104,22 C34.7011104,22.492 35.4541104,22.84 36.4381104,23.044 C37.0741104,23.176 37.5121104,23.317 37.7521104,23.467 C37.9921104,23.617 38.1121104,23.794 38.1121104,23.998 C38.1121104,24.178 38.0161104,24.325 37.8241104,24.439 C37.6321104,24.553 37.3201104,24.61 36.8881104,24.61 C36.4321104,24.61 35.9941104,24.523 35.5741104,24.349 C35.1541104,24.175 34.7941104,23.956 34.4941104,23.692 L33.1441104,25.6 C33.3601104,25.768 33.6151104,25.918 33.9091104,26.05 C34.2031104,26.182 34.5151104,26.299 34.8451104,26.401 C35.1751104,26.503 35.5171104,26.581 35.8711104,26.635 C36.2251104,26.689 36.5701104,26.716 36.9061104,26.716 C38.0941104,26.716 39.0211104,26.458 39.6871104,25.942 C40.3531104,25.426 40.6861104,24.754 40.6861104,23.926 C40.6861104,23.566 40.6321104,23.236 40.5241104,22.936 C40.4161104,22.636 40.2331104,22.363 39.9751104,22.117 C39.7171104,21.871 39.3751104,21.649 38.9491104,21.451 C38.5231104,21.253 37.9981104,21.082 37.3741104,20.938 C36.8221104,20.806 36.4501104,20.677 36.2581104,20.551 C36.0661104,20.425 35.9701104,20.278 35.9701104,20.11 C35.9701104,19.942 36.0541104,19.807 36.2221104,19.705 C36.3901104,19.603 36.6421104,19.552 36.9781104,19.552 C37.3981104,19.552 37.8091104,19.624 38.2111104,19.768 C38.6131104,19.912 38.9701104,20.092 39.2821104,20.308 L40.6321104,18.4 C40.1401104,18.112 39.5791104,17.878 38.9491104,17.698 C38.3191104,17.518 37.6501104,17.428 36.9421104,17.428 Z M90.2221104,14.656 L87.6481104,14.656 L87.6481104,17.644 L86.1721104,17.644 L86.1721104,20.02 L87.6481104,20.02 L87.6481104,23.998 C87.6481104,24.97 87.9001104,25.666 88.4041104,26.086 C88.9081104,26.506 89.5741104,26.716 90.4021104,26.716 C90.7861104,26.716 91.1671104,26.692 91.5451104,26.644 C91.9231104,26.596 92.2681104,26.53 92.5801104,26.446 L92.1841104,24.088 C91.8481104,24.172 91.5661104,24.229 91.3381104,24.259 C91.1101104,24.289 90.9121104,24.304 90.7441104,24.304 C90.5761104,24.304 90.4471104,24.253 90.3571104,24.151 C90.2671104,24.049 90.2221104,23.86 90.2221104,23.584 L90.2221104,20.02 L92.4001104,20.02 L92.4001104,17.644 L90.2221104,17.644 L90.2221104,14.656 Z M19.8241104,14.224 L17.1601104,14.224 L17.1601104,26.5 L19.8241104,26.5 L19.8241104,14.224 Z M144.11411,17.644 L141.54011,17.644 L141.54011,26.5 L144.11411,26.5 L144.11411,17.644 Z M62.6101104,17.644 L60.0361104,17.644 L60.0361104,26.5 L62.6101104,26.5 L62.6101104,17.644 Z M57.1921104,17.428 C56.6641104,17.428 56.2051104,17.554 55.8151104,17.806 C55.4251104,18.058 55.1041104,18.418 54.8521104,18.886 L54.8161104,18.886 L54.7081104,17.644 L52.5301104,17.644 L52.5301104,26.5 L55.1041104,26.5 L55.1041104,22.018 C55.1041104,21.262 55.2211104,20.731 55.4551104,20.425 C55.6891104,20.119 56.0161104,19.966 56.4361104,19.966 C56.6641104,19.966 56.9161104,20.005 57.1921104,20.083 C57.4681104,20.161 57.7081104,20.23 57.9121104,20.29 L58.4161104,17.608 C58.2481104,17.56 58.0531104,17.518 57.8311104,17.482 C57.6091104,17.446 57.3961104,17.428 57.1921104,17.428 Z M27.9061104,17.428 L27.8341104,17.428 C27.3181104,17.428 26.8081104,17.542 26.3041104,17.77 C25.7761104,18.01 25.3201104,18.358 24.9361104,18.814 L24.9001104,18.814 L24.7921104,17.644 L22.6141104,17.644 L22.6141104,26.5 L25.1881104,26.5 L25.1881104,22 C25.1881104,21.736 25.2301104,21.475 25.3141104,21.217 C25.3981104,20.959 25.5181104,20.725 25.6741104,20.515 C25.8301104,20.305 26.0221104,20.137 26.2501104,20.011 C26.4781104,19.885 26.7361104,19.822 27.0241104,19.822 C27.2521104,19.822 27.4651104,19.858 27.6631104,19.93 C27.8611104,20.002 28.0351104,20.119 28.1851104,20.281 C28.3351104,20.443 28.4551104,20.653 28.5451104,20.911 C28.6351104,21.169 28.6801104,21.49 28.6801104,21.874 L28.6801104,26.5 L31.2541104,26.5 L31.2541104,21.424 C31.2541104,20.74 31.1671104,20.146 30.9931104,19.642 C30.8191104,19.138 30.5791104,18.724 30.2731104,18.4 C29.9671104,18.076 29.6101104,17.833 29.2021104,17.671 C28.7941104,17.509 28.3621104,17.428 27.9061104,17.428 Z M112.11011,22.702 C112.39811,22.702 112.67411,22.717 112.93811,22.747 C113.20211,22.777 113.44211,22.816 113.65811,22.864 L113.65811,22.918 C113.65811,23.23 113.60411,23.506 113.49611,23.746 C113.38811,23.986 113.24711,24.187 113.07311,24.349 C112.89911,24.511 112.69811,24.631 112.47011,24.709 C112.24211,24.787 112.00811,24.826 111.76811,24.826 C111.36011,24.826 111.04211,24.727 110.81411,24.529 C110.58611,24.331 110.47211,24.076 110.47211,23.764 C110.47211,23.056 111.01811,22.702 112.11011,22.702 Z M69.9541104,19.858 C70.5661104,19.858 71.0641104,20.062 71.4481104,20.47 C71.8321104,20.878 72.0241104,21.412 72.0241104,22.072 C72.0241104,22.732 71.8321104,23.263 71.4481104,23.665 C71.0641104,24.067 70.5661104,24.268 69.9541104,24.268 C69.3421104,24.268 68.8411104,24.067 68.4511104,23.665 C68.0611104,23.263 67.8661104,22.732 67.8661104,22.072 C67.8661104,21.412 68.0611104,20.878 68.4511104,20.47 C68.8411104,20.062 69.3421104,19.858 69.9541104,19.858 Z M123.05411,19.858 C123.66611,19.858 124.16411,20.062 124.54811,20.47 C124.93211,20.878 125.12411,21.412 125.12411,22.072 C125.12411,22.732 124.93211,23.263 124.54811,23.665 C124.16411,24.067 123.66611,24.268 123.05411,24.268 C122.44211,24.268 121.94111,24.067 121.55111,23.665 C121.16111,23.263 120.96611,22.732 120.96611,22.072 C120.96611,21.412 121.16111,20.878 121.55111,20.47 C121.94111,20.062 122.44211,19.858 123.05411,19.858 Z M80.5921104,19.606 C81.0961104,19.606 81.4891104,19.762 81.7711104,20.074 C82.0531104,20.386 82.2061104,20.752 82.2301104,21.172 L78.8641104,21.172 C78.9601104,20.692 79.1461104,20.311 79.4221104,20.029 C79.6981104,19.747 80.0881104,19.606 80.5921104,19.606 Z M98.3041104,19.606 C98.8081104,19.606 99.2011104,19.762 99.4831104,20.074 C99.7651104,20.386 99.9181104,20.752 99.9421104,21.172 L96.5761104,21.172 C96.6721104,20.692 96.8581104,20.311 97.1341104,20.029 C97.4101104,19.747 97.8001104,19.606 98.3041104,19.606 Z M62.4661104,13.18 L60.1081104,15.772 L61.2061104,16.528 L64.0141104,14.242 L62.4661104,13.18 Z M143.97011,13.18 L141.61211,15.772 L142.71011,16.528 L145.51811,14.242 L143.97011,13.18 Z" id="sign-up-button" fill="#FFFFFF"></path>
    </g>
</svg>