<?xml version="1.0" encoding="UTF-8"?>
<svg width="40px" height="28px" viewBox="0 0 40 28" version="1.1" xmlns="http://www.w3.org/2000/svg" xmlns:xlink="http://www.w3.org/1999/xlink">
    <title>youtube</title>
    <g id="website" stroke="none" stroke-width="1" fill="none" fill-rule="evenodd">
        <g id="exports" transform="translate(-110, -236)" fill="#FFFFFF" fill-rule="nonzero">
            <path d="M130.321645,235.999787 C131.327002,236.003279 134.540996,236.023648 137.827534,236.142471 L138.507841,236.168487 C141.454255,236.28754 144.340565,236.490254 145.627391,236.835414 C147.349467,237.296394 148.702907,238.649704 149.163807,240.371794 C149.944779,243.295097 149.996543,249.199219 149.999963,249.925816 L150,250.073553 C149.996937,250.800152 149.947929,256.704301 149.163807,259.62763 C148.702907,261.349706 147.349467,262.703006 145.627391,263.163907 C144.390058,263.49581 141.673912,263.696006 138.847458,263.816759 L138.167691,263.844241 L137.487893,263.868833 C134.435036,263.973236 131.508911,263.994731 130.433439,263.999156 L130.145856,264.00009 C130.122043,264.000143 130.101032,264.000183 130.08291,264.000213 L129.917449,264.000213 C129.899327,264.000183 129.878316,264.000143 129.854504,264.00009 L129.566925,263.999156 C128.491466,263.994731 125.565376,263.973236 122.512539,263.868833 L121.832745,263.844241 C118.770589,263.727194 115.709382,263.522363 114.373009,263.163907 C112.650933,262.703006 111.297623,261.349706 110.836643,259.62763 C110.122261,256.964152 110.018081,251.826226 110.002887,250.38431 L110.001239,250.200398 C110.00105,250.174382 110.000899,250.150744 110.000778,250.129573 L110.000778,249.869795 C110.000899,249.848624 110.00105,249.824986 110.001239,249.798971 L110.002887,249.61506 C110.018081,248.17315 110.122261,243.035248 110.836643,240.371794 C111.297623,238.649704 112.650933,237.296394 114.373009,236.835414 C115.659887,236.490254 118.546199,236.28754 121.492597,236.168487 L122.172901,236.142471 C125.459418,236.023648 128.673373,236.003279 129.678717,235.999787 Z M125.996422,244.00088 L125.996422,255.99951 L136.388242,250.000244 L125.996422,244.00088 Z" id="youtube"></path>
        </g>
    </g>
</svg>